<svg width="47" height="47" viewBox="0 0 47 47" fill="none" xmlns="http://www.w3.org/2000/svg">
<path d="M39.95 11.75C39.95 9.15764 37.8424 7.04999 35.25 7.04999H11.75C9.15771 7.04999 7.05005 9.15764 7.05005 11.75V35.25C7.05005 37.8423 9.15771 39.95 11.75 39.95H35.25C37.8424 39.95 39.95 37.8423 39.95 35.25V11.75ZM26.5697 34.6405C26.5697 34.5083 26.5697 34.1998 26.5771 33.7886C26.5844 32.9514 26.5844 31.6736 26.5844 30.5794C26.5844 29.4337 26.2025 28.7067 25.7546 28.3248C28.4718 28.0237 31.3358 27.6492 31.3358 22.9565C31.3358 21.62 30.8585 20.9517 30.08 20.0925C30.2049 19.7767 30.6235 18.4769 29.9552 16.7878C28.9344 16.472 26.5991 18.1023 26.5991 18.1023C24.6457 17.5515 22.4425 17.5515 20.4891 18.1023C20.4891 18.1023 18.1538 16.472 17.133 16.7878C16.4647 18.4695 16.876 19.7694 17.0082 20.0925C16.2297 20.9517 15.8625 21.62 15.8625 22.9565C15.8625 27.6272 18.6018 28.0237 21.319 28.3248C20.9665 28.6406 20.6507 29.184 20.5405 29.9625C19.8429 30.2783 18.0583 30.8217 16.9935 28.9417C16.3252 27.7814 15.1208 27.6859 15.1208 27.6859C13.9311 27.6712 15.04 28.435 15.04 28.435C15.8332 28.8022 16.3913 30.2122 16.3913 30.2122C17.1036 32.3933 20.5111 31.6589 20.5111 31.6589C20.5111 32.3198 20.5185 33.2525 20.5185 33.9061C20.5185 34.2586 20.5258 34.5376 20.5258 34.6405C20.5258 34.9562 20.3055 35.3381 19.6813 35.228C14.8344 33.605 11.4416 28.9931 11.4416 23.6028C11.4416 16.8612 16.5969 11.7426 23.3385 11.7426C30.08 11.7426 35.5438 16.8612 35.5438 23.6028C35.5511 28.9931 32.2611 33.6123 27.4143 35.228C26.7974 35.3381 26.5697 34.9562 26.5697 34.6405ZM19.9236 30.6161C19.909 30.5059 20.0044 30.4105 20.144 30.3811C20.2835 30.3664 20.4157 30.4251 20.4304 30.5206C20.4524 30.6161 20.3569 30.7115 20.21 30.7409C20.0705 30.7703 19.9383 30.7115 19.9236 30.6161ZM19.2554 30.8511C19.0938 30.8658 18.9836 30.785 18.9836 30.6748C18.9836 30.5794 19.0938 30.4986 19.2407 30.4986C19.3802 30.4839 19.5124 30.5647 19.5124 30.6748C19.5124 30.7703 19.4022 30.8511 19.2554 30.8511ZM18.2052 30.6895C18.0657 30.6601 17.9702 30.55 17.9996 30.4545C18.029 30.3591 18.1758 30.315 18.3007 30.3444C18.4475 30.3884 18.543 30.4986 18.5063 30.594C18.4769 30.6895 18.33 30.7336 18.2052 30.6895ZM17.2872 30.1534C17.1771 30.058 17.1477 29.9184 17.2211 29.8523C17.2872 29.7715 17.4268 29.7862 17.5369 29.8964C17.6324 29.9919 17.6691 30.1387 17.603 30.1975C17.5369 30.2783 17.3974 30.2636 17.2872 30.1534ZM16.663 29.4191C16.5822 29.3089 16.5822 29.184 16.663 29.1326C16.7438 29.0666 16.8686 29.118 16.9347 29.2281C17.0155 29.3383 17.0155 29.4705 16.9347 29.5292C16.8686 29.5733 16.7438 29.5292 16.663 29.4191ZM16.2004 28.7728C16.1196 28.6773 16.1049 28.5672 16.171 28.5158C16.2371 28.4497 16.3472 28.4864 16.428 28.5598C16.5088 28.6553 16.5235 28.7655 16.4574 28.8169C16.3913 28.883 16.2811 28.8462 16.2004 28.7728ZM15.7597 28.3028C15.6643 28.2587 15.6202 28.178 15.6496 28.1119C15.679 28.0678 15.7597 28.0458 15.8552 28.0825C15.9507 28.1339 15.9947 28.2147 15.9654 28.2734C15.936 28.3395 15.8405 28.3542 15.7597 28.3028Z" fill="white"/>
</svg>
