<svg width="47" height="47" viewBox="0 0 47 47" fill="none" xmlns="http://www.w3.org/2000/svg">
<path d="M23.5219 15.0547C18.8587 15.04 15.0693 18.8147 15.0546 23.478C15.0399 28.1413 18.8146 31.9306 23.4779 31.9453C28.1412 31.96 31.9305 28.1853 31.9452 23.5221C31.9599 18.8588 28.1852 15.0694 23.5219 15.0547ZM23.4779 18.0216C26.5035 18.0069 28.9637 20.4524 28.9783 23.478C28.993 26.5036 26.5476 28.9638 23.5219 28.9785C20.4963 28.9931 18.0362 26.5477 18.0215 23.5221C18.0068 20.4964 20.4522 18.0363 23.4779 18.0216ZM30.3369 14.7096C30.3369 13.6227 31.2182 12.7414 32.3051 12.7414C33.3919 12.7414 34.2732 13.6227 34.2732 14.7096C34.2732 15.7964 33.3919 16.6777 32.3051 16.6777C31.2182 16.6777 30.3369 15.7964 30.3369 14.7096ZM39.8618 16.7071C39.7369 14.0706 39.1347 11.7353 37.2033 9.81127C35.2793 7.88721 32.944 7.28502 30.3076 7.15283C27.5904 6.99862 19.4462 6.99862 16.729 7.15283C14.0999 7.27768 11.7646 7.87987 9.83318 9.80393C7.90178 11.728 7.30693 14.0633 7.17475 16.6997C7.02053 19.4169 7.02053 27.5611 7.17475 30.2783C7.29959 32.9147 7.90178 35.25 9.83318 37.1741C11.7646 39.0981 14.0926 39.7003 16.729 39.8325C19.4462 39.9867 27.5904 39.9867 30.3076 39.8325C32.944 39.7077 35.2793 39.1055 37.2033 37.1741C39.1274 35.25 39.7296 32.9147 39.8618 30.2783C40.016 27.5611 40.016 19.4242 39.8618 16.7071ZM36.3515 33.1938C35.7787 34.6331 34.6697 35.7421 33.223 36.3222C31.0566 37.1814 25.916 36.9831 23.5219 36.9831C21.1279 36.9831 15.9799 37.1741 13.8208 36.3222C12.3815 35.7494 11.2726 34.6405 10.6924 33.1938C9.83318 31.0274 10.0315 25.8867 10.0315 23.4927C10.0315 21.0986 9.84053 15.9506 10.6924 13.7916C11.2652 12.3522 12.3741 11.2433 13.8208 10.6631C15.9872 9.80393 21.1279 10.0022 23.5219 10.0022C25.916 10.0022 31.064 9.81127 33.223 10.6631C34.6624 11.236 35.7713 12.3449 36.3515 13.7916C37.2107 15.958 37.0124 21.0986 37.0124 23.4927C37.0124 25.8867 37.2107 31.0347 36.3515 33.1938Z" fill="white"/>
</svg>
