<svg width="47" height="46" viewBox="0 0 47 46" fill="none" xmlns="http://www.w3.org/2000/svg">
<path d="M11.75 6.90002C9.15771 6.90002 7.05005 8.96284 7.05005 11.5V34.5C7.05005 37.0372 9.15771 39.1 11.75 39.1H35.25C37.8424 39.1 39.95 37.0372 39.95 34.5V11.5C39.95 8.96284 37.8424 6.90002 35.25 6.90002H11.75ZM12.1172 19.1332H17.0008V34.5H12.1172V19.1332ZM17.3827 14.2672C17.3827 15.7981 16.1196 17.0344 14.5554 17.0344C12.9911 17.0344 11.728 15.7981 11.728 14.2672C11.728 12.7363 12.9911 11.5 14.5554 11.5C16.1196 11.5 17.3827 12.7363 17.3827 14.2672ZM30.3958 34.5V27.025C30.3958 25.2425 30.3591 22.9497 27.8622 22.9497C25.3213 22.9497 24.9321 24.8903 24.9321 26.8956V34.5H20.0558V19.1332H24.7338V21.2319H24.7999C25.4535 20.0244 27.0471 18.7522 29.4191 18.7522C34.3541 18.7522 35.2721 21.9363 35.2721 26.0763V34.5H30.3958Z" fill="white"/>
</svg>
