<svg width="35" height="33" viewBox="0 0 35 33" fill="none" xmlns="http://www.w3.org/2000/svg">
<path d="M18.6519 12.6588C18.6784 12.5144 18.7359 12.2645 18.7915 12.0367C18.8481 11.8048 18.9038 11.5905 18.9233 11.5338C18.9368 11.495 18.9651 11.4079 18.9849 11.3385C19.0988 10.9388 19.3722 10.3367 19.5972 9.98303C19.9448 9.43662 20.3041 9.04657 20.8882 8.58362C21.5142 8.08747 22.0659 7.51479 22.4663 6.9469C22.5389 6.84399 22.653 6.64433 22.7593 6.44202C22.8658 6.2393 22.9617 6.03861 22.9985 5.93518C23.0261 5.85772 23.0585 5.76753 23.0737 5.73401C23.0792 5.72203 23.0893 5.69182 23.1021 5.65002C23.1144 5.60965 23.1278 5.56144 23.1411 5.51526C23.168 5.422 23.2026 5.30627 23.2183 5.2594C23.2491 5.16679 23.2706 5.03425 23.3511 4.46155C23.3845 4.22361 23.4002 4.11311 23.4009 4.00159C23.4016 3.88986 23.3877 3.77663 23.3599 3.53284C23.2582 2.64185 22.9572 1.9579 22.4585 1.47034C22.3427 1.3572 22.2617 1.28382 22.1792 1.22327C22.0969 1.16293 22.0111 1.11382 21.8843 1.05042C21.4743 0.845428 21.0516 0.716674 20.5894 0.660767C20.4423 0.642985 20.2116 0.638601 19.9819 0.646118C19.7522 0.65364 19.5278 0.672129 19.3921 0.698853C18.7193 0.831429 18.1461 1.0786 17.6782 1.54846C17.6044 1.62259 17.5345 1.68637 17.479 1.73206C17.4513 1.75482 17.4256 1.77423 17.4048 1.78772C17.3945 1.79435 17.3841 1.79988 17.3745 1.80432C17.3664 1.80809 17.3526 1.81409 17.3374 1.81409H17.3315C17.3162 1.81409 17.3025 1.8081 17.2944 1.80432C17.2848 1.79985 17.2744 1.79438 17.2642 1.78772C17.2434 1.77423 17.2186 1.75482 17.1909 1.73206C17.1354 1.68638 17.0656 1.62271 16.9917 1.54846C16.5221 1.07671 15.9469 0.775219 15.2769 0.643188C15.1412 0.616481 14.9166 0.596995 14.687 0.589478C14.4576 0.581977 14.2276 0.586386 14.0806 0.604126C13.6184 0.659994 13.1956 0.788851 12.7856 0.993774C12.6589 1.05715 12.5729 1.10635 12.4907 1.16663C12.4081 1.2272 12.3273 1.30048 12.2114 1.4137C11.7125 1.90128 11.4107 2.58498 11.3091 3.4762C11.2813 3.71995 11.2674 3.83327 11.2681 3.94495C11.2688 4.05642 11.2845 4.16716 11.3179 4.40491C11.3983 4.97697 11.4199 5.11016 11.4507 5.20276C11.4663 5.2496 11.501 5.36538 11.5278 5.45862C11.5412 5.50499 11.5555 5.55387 11.5679 5.59436C11.5806 5.63594 11.5908 5.66546 11.5962 5.67737C11.6114 5.71085 11.6429 5.80116 11.6704 5.87854C11.7072 5.98197 11.8032 6.18266 11.9097 6.38538C12.0159 6.5876 12.13 6.7872 12.2026 6.89026C12.603 7.4581 13.1548 8.03086 13.7808 8.52698C14.3651 8.99008 14.7251 9.38073 15.0728 9.92737C15.2977 10.2812 15.5712 10.8833 15.6851 11.2828C15.7048 11.3521 15.7322 11.4384 15.7456 11.4772C15.7651 11.5335 15.8207 11.7478 15.8774 11.9801C15.933 12.2077 15.9895 12.4576 16.0161 12.6022L17.3247 14.5211L18.6519 12.6588Z" fill="#D3A373" stroke="#D3A373" stroke-width="0.1"/>
<path d="M15.9126 15.4304C15.8281 15.3669 15.7938 15.2311 15.7878 15.1142C15.7857 15.0776 15.8584 15.0469 15.8598 15.0198C15.8625 14.9667 15.8102 14.9549 15.8178 14.899C15.8206 14.8803 15.9311 14.8253 15.9317 14.8073C15.934 14.7092 15.8681 14.6634 15.8464 14.5806C15.7394 14.173 15.5652 13.8198 15.3918 13.4519C15.3346 13.3306 15.3334 13.1363 15.2212 13.0475C15.2081 13.0372 15.1302 13.1022 15.1217 13.1043C14.9913 13.1362 15.1674 13.0344 15.1727 12.9931C15.1932 12.8292 15.1251 12.7095 15.0288 12.6316C14.9875 12.5986 14.8532 12.7524 14.9164 12.6472C14.9206 12.6401 15.0142 12.5914 15.0158 12.5734C15.0194 12.5329 14.9713 12.4936 14.9648 12.4685C14.9527 12.4199 14.9475 12.414 14.9242 12.3761C14.893 12.3239 14.8958 12.2344 14.8408 12.1933C14.8288 12.1846 14.7516 12.26 14.7247 12.2516C14.6978 12.2431 14.6732 12.1888 14.6829 12.1581C14.6926 12.1275 14.7654 12.0877 14.7791 12.074C14.8951 11.9594 14.6752 12.0281 14.6661 12.0237C14.5026 11.9429 14.5311 11.7575 14.4486 11.6329C14.3858 11.5383 14.286 11.4596 14.2315 11.366C14.167 11.2543 14.1521 11.1322 14.0757 11.0331C14.0678 11.0225 13.9793 11.102 13.9695 11.0892C13.8649 10.9534 13.7833 10.8032 13.7541 10.6166C13.7512 10.5978 13.8465 10.5591 13.8485 10.537C13.8597 10.4024 13.9286 10.1544 13.5376 10.3477C13.5128 10.2788 13.4802 10.1969 13.5166 10.095C13.5399 10.0294 13.6502 10.0018 13.5847 9.98595C13.57 9.98229 13.5009 10.0476 13.4848 10.0381C13.4172 9.99784 13.3992 9.91549 13.3208 9.88358C13.3047 9.87721 13.2384 9.92755 13.2238 9.93261C13.1054 9.97241 13.2392 9.81134 13.2442 9.79284C13.2812 9.6526 13.2079 9.61914 13.1616 9.544C13.1509 9.52655 13.0737 9.60895 13.0602 9.59435C12.9914 9.51776 12.9416 9.42368 12.9263 9.31286C12.9232 9.28807 13.0103 9.25298 13.0127 9.23848C13.0219 9.17531 12.8731 9.26496 12.8793 9.20614C12.8805 9.19388 12.9481 9.1539 12.9542 9.14757C13.0507 9.04848 12.8798 9.13737 12.8726 9.1339C12.7769 9.09291 12.9096 8.93351 12.8391 8.87879C12.8306 8.87232 12.7625 8.94694 12.7435 8.92532C12.6163 8.78163 12.5282 8.59785 12.4866 8.39773C12.48 8.36669 12.5505 8.34363 12.5568 8.33709C12.6535 8.23421 12.4906 8.32248 12.4797 8.31841C12.397 8.28376 12.484 8.13855 12.2766 8.21888C12.1617 7.91049 11.8899 7.71163 11.8678 7.34271C11.8673 7.33815 11.9418 7.29567 11.9406 7.2868C11.9259 7.17955 11.8267 7.27022 11.6584 7.30826C11.6162 7.31768 11.7494 7.16663 11.7587 7.15504C11.7931 7.11222 11.906 7.05453 11.9114 7.0444C11.9522 6.96319 11.6137 7.20445 11.5812 7.1551C11.5807 7.15317 11.6478 7.11646 11.6514 7.10804C11.6624 7.08174 11.629 7.08617 11.6422 7.05879C11.6731 6.99572 11.831 6.87229 11.7055 6.89462C11.6893 6.89763 11.5027 7.03818 11.4828 6.98788C11.4749 6.96774 11.4204 6.89229 11.4183 6.86206C11.4162 6.83187 11.4874 6.80469 11.489 6.80131C11.5308 6.68737 11.5792 6.68646 11.6788 6.57532C11.7777 6.4647 11.4997 6.66755 11.4601 6.67736C11.4206 6.68708 11.4582 6.59876 11.4741 6.57253C11.49 6.54626 11.5374 6.53283 11.544 6.5146C11.5868 6.39479 11.3858 6.58358 11.3275 6.59386C11.19 6.61807 11.3729 6.43769 11.3631 6.38008C11.3605 6.36446 11.32 6.40649 11.3085 6.39892C11.2635 6.36846 11.3105 6.29921 11.2196 6.29184C11.2047 6.29067 11.056 6.33637 11.1294 6.24942C11.14 6.23696 11.1976 6.21207 11.1969 6.18639C11.1959 6.14797 11.1743 6.0924 11.138 6.07533C11.1112 6.06273 11.0445 6.1441 11.0524 6.09966C11.0559 6.07989 11.1193 6.06849 11.1218 6.03418C11.1244 6 11.0838 5.94499 11.0675 5.92463C11.0512 5.90434 10.9968 5.95897 10.9914 5.96013C10.9602 5.96618 10.9024 5.9454 10.9001 5.94168C10.7697 5.76187 10.7581 5.52146 10.6033 5.36558C10.5912 5.35326 10.5344 5.40605 10.5319 5.40461C10.4732 5.37449 10.6665 5.2972 10.6997 5.22518C10.5752 5.31787 10.5849 5.28214 10.548 5.25785C10.5301 5.24621 10.4868 5.28898 10.4808 5.29096C10.3897 5.31804 10.475 5.23473 10.4918 5.21687C10.5534 5.15101 10.456 5.19237 10.497 5.14822C10.5376 5.10439 10.6258 5.08051 10.6027 5.04883C10.5513 5.07079 10.4494 5.17614 10.4136 5.16457C10.279 5.1207 10.2546 4.88294 10.2131 4.80183C10.1721 4.7206 10.1477 4.70199 10.1341 4.64759C10.1094 4.54938 10.0445 4.6362 9.97336 4.61355C9.9023 4.59066 10.1243 4.47297 10.1639 4.43547C10.2034 4.39818 10.1527 4.42199 10.1711 4.39674C10.1895 4.37155 10.2324 4.36927 10.2276 4.34305C10.2227 4.3169 10.1064 4.31608 10.0557 4.34045C9.94815 4.3922 9.86283 4.48721 9.86293 4.409C9.86299 4.40447 9.92324 4.37765 9.92074 4.36217C9.89892 4.2405 9.83572 4.14195 9.80805 4.02446C9.80431 4.00826 9.87037 3.97966 9.86882 3.9698C9.85272 3.8671 9.77368 3.96207 9.63663 3.99388C9.78726 3.90438 9.85936 3.82037 9.81936 3.76151C9.79543 3.72604 9.73716 3.77501 9.67758 3.78238C9.65967 3.78462 9.68526 3.73031 9.65291 3.74588C9.54723 3.79654 9.4563 3.89362 9.4581 3.80335C9.45833 3.7993 9.51612 3.77202 9.51306 3.76063C9.49344 3.68688 9.38952 3.74784 9.33473 3.69118C9.29184 3.64674 9.29149 3.51553 9.26235 3.4514C9.41839 3.34595 9.3455 3.31654 9.22446 3.36746C9.2037 3.32711 9.17064 3.29083 9.16092 3.24472C9.15751 3.22889 9.2072 3.20669 9.21092 3.20184C9.26945 3.12649 9.15619 3.18057 9.14681 3.17522C9.04933 3.11443 9.07755 2.99094 8.94717 2.95858C8.94248 2.95747 8.83594 3.02366 8.89647 2.94947C8.90067 2.94448 8.96622 2.93972 8.94342 2.89802C8.92076 2.85621 8.9254 2.74488 8.8414 2.72294C8.82107 2.71763 8.71659 2.74067 8.76275 2.66982C8.76905 2.66028 8.80064 2.64428 8.81328 2.62807C8.85326 2.57627 8.74533 2.63715 8.81847 2.55831C8.89163 2.47946 8.92757 2.39529 8.83066 2.38155C8.82772 2.38101 8.73912 2.42287 8.72866 2.4048C8.71197 2.37594 8.70177 2.32571 8.68158 2.29747C8.67189 2.28397 8.62899 2.32635 8.62646 2.32459C8.53632 2.25097 8.53511 2.15533 8.48584 2.04397C8.4768 2.02356 8.37654 2.01595 8.40372 1.94574C8.43312 1.86895 8.69255 1.74885 8.57494 1.69959C8.52723 1.67992 8.206 1.83421 8.31195 1.66714C8.18958 1.56838 8.18516 1.40233 8.04763 1.31348C8.04146 1.30946 7.95168 1.34508 7.9438 1.33111C7.9322 1.31031 7.96096 1.27475 7.95374 1.25916C7.92438 1.19323 7.85707 1.1607 7.82325 1.10091C7.81031 1.07829 7.85203 1.06064 7.83648 1.03374C7.82086 1.00691 7.76133 1.02275 7.76069 0.972283C7.7604 0.934038 7.83939 0.841318 7.82632 0.799271C7.73007 0.863449 7.71557 0.838367 7.66147 0.81324C7.65104 0.808432 7.62409 0.839788 7.61747 0.838675C7.58983 0.83461 7.60716 0.801368 7.5786 0.799097C7.57172 0.798504 7.53946 0.820417 7.53203 0.821167C7.46778 0.828295 7.51182 0.737046 7.51936 0.721398C7.54813 0.661486 7.498 0.677169 7.50231 0.643417C7.50654 0.609767 7.55118 0.625062 7.54563 0.592964C7.53398 0.526534 7.48384 0.465344 7.44978 0.413151C7.43598 0.392467 7.40421 0.43488 7.40127 0.432579C7.36177 0.397348 7.37584 0.32461 7.27815 0.357143C7.46871 0.182966 7.24018 0.345615 7.24098 0.255914C7.24114 0.248789 7.33561 0.17494 7.36291 0.183148C7.39023 0.191335 7.37854 0.240254 7.41903 0.249837C7.42849 0.252196 7.54639 0.221932 7.55551 0.222596C7.62626 0.22822 7.47965 0.336635 7.47271 0.344276C7.39881 0.427591 7.52983 0.399571 7.54484 0.405592C7.61285 0.433571 7.62166 0.490986 7.67489 0.516894C7.70954 0.533951 7.81261 0.46713 7.82512 0.490624C7.86703 0.568505 7.74141 0.69205 7.91424 0.673819C7.95123 0.669962 8.05383 0.578049 8.0026 0.690481C7.99945 0.697499 7.94538 0.791984 8.01321 0.778509C8.02177 0.776787 8.05496 0.753857 8.06043 0.755585C8.09646 0.767596 8.08185 0.802166 8.11413 0.820046C8.14643 0.837916 8.1892 0.856692 8.20014 0.894921C8.20681 0.917898 8.16084 0.984853 8.15167 1.00434C8.12492 1.05998 8.21769 1.03619 8.17446 1.08897C8.13084 1.14223 8.02622 1.16859 8.01955 1.23422C8.10972 1.17452 8.2037 1.11514 8.29517 1.05593C8.35741 1.14693 8.39221 1.25463 8.46141 1.34129C8.4701 1.35195 8.51105 1.3068 8.52169 1.31733C8.56644 1.36183 8.56317 1.42981 8.61542 1.47195C8.65606 1.50444 8.74183 1.51175 8.78658 1.54417C8.69787 1.64371 8.78007 1.68096 8.80351 1.73295C8.81172 1.75116 8.78177 1.77014 8.78049 1.78799C8.77626 1.85488 8.85854 1.76836 8.88238 1.76953C8.9847 1.7745 8.7676 1.9301 8.81555 1.9859C8.81793 1.98897 8.96425 1.9459 8.97562 1.946C9.0485 1.94623 8.93835 1.97994 8.94488 2.00693C8.95679 2.05621 8.94738 2.10261 9.01527 2.12339C9.03516 2.12939 9.13346 2.10901 9.09383 2.17442C9.08864 2.18301 9.04729 2.20864 9.04691 2.21294C9.04315 2.2887 9.17017 2.20336 9.23365 2.20156C9.29721 2.19971 9.24133 2.30269 9.22226 2.32895C9.17335 2.39695 9.18142 2.33065 9.17408 2.33384C9.08701 2.37178 9.12292 2.39422 9.13376 2.42277C9.01104 2.5123 9.04239 2.5411 9.1455 2.45202C9.15671 2.44225 9.13152 2.43154 9.13376 2.42277C9.27179 2.35953 9.31533 2.38494 9.22905 2.50533C9.18853 2.56177 9.11214 2.58722 9.17684 2.62966C9.20618 2.64893 9.28646 2.57853 9.32724 2.58532C9.42057 2.6007 9.38843 2.72609 9.44095 2.77198C9.4601 2.78856 9.49487 2.7357 9.50969 2.74584C9.54928 2.77259 9.53562 2.82956 9.58088 2.85265C9.58506 2.85469 9.63077 2.81129 9.63969 2.82202C9.70835 2.90258 9.72943 2.99933 9.79353 3.08867C9.82451 3.13182 9.91014 3.1882 9.93696 3.23653C9.98388 3.32 9.9745 3.46877 10.0416 3.52154C10.0852 3.55602 10.133 3.50906 10.1838 3.50176C10.2825 3.48726 10.199 3.639 10.1847 3.66149C10.1842 3.66222 10.1442 3.63421 10.1303 3.67336C10.0797 3.72536 10.1841 3.66126 10.1847 3.66149C10.1758 3.67599 10.217 3.75845 10.2383 3.7658C10.25 3.76977 10.2994 3.72911 10.3045 3.73185C10.4242 3.79777 10.5114 3.88628 10.5601 4.00314C10.5603 4.00564 10.498 4.04446 10.4992 4.04984C10.5148 4.12617 10.616 4.11231 10.6958 4.12925C10.7755 4.14624 10.7891 4.19377 10.7042 4.2946C10.744 4.32136 10.7352 4.40514 10.7282 4.4546C10.7212 4.50408 10.8455 4.42495 10.8498 4.4259C10.987 4.45433 10.9525 4.54894 11.0037 4.64096C11.028 4.68481 11.1048 4.75205 11.1506 4.78602C11.1871 4.81273 11.1731 4.85353 11.2153 4.87222C11.221 4.87476 11.2737 4.83206 11.2768 4.83188C11.3701 4.82103 11.2207 4.89812 11.2016 4.92219C11.1323 5.00967 11.0965 5.05888 11.1717 5.07542C11.1888 5.07936 11.4099 4.97324 11.4359 4.98403C11.4692 4.99843 11.3908 5.03827 11.4274 5.05213C11.4304 5.05337 11.4743 5.02256 11.4843 5.03976C11.5314 5.11921 11.5657 5.21748 11.6277 5.29108C11.636 5.30124 11.6972 5.23883 11.7105 5.25266C11.7725 5.3176 11.8289 5.3968 11.8471 5.48911C11.8513 5.51199 11.7925 5.53622 11.7802 5.55028C11.7058 5.63576 11.8626 5.57678 11.8693 5.58027C12.0289 5.66248 11.9799 5.84304 12.1351 5.93202C12.1436 5.9368 12.3313 5.88982 12.2235 6.00043C12.2164 6.00779 12.1051 6.12048 12.2093 6.08087C12.2158 6.07837 12.2712 6.01777 12.284 6.04832C12.2967 6.07892 12.3731 6.08975 12.3262 6.17603C12.3116 6.2032 12.201 6.31966 12.3302 6.28191C12.3389 6.27927 12.6145 6.16873 12.4654 6.29933C12.4408 6.32079 12.2655 6.43648 12.3842 6.41586C12.4072 6.41171 12.4354 6.37121 12.4747 6.37484C12.5354 6.38018 12.5196 6.45332 12.6261 6.43788C12.6448 6.43509 12.7853 6.38151 12.7122 6.46609C12.7008 6.47935 12.6371 6.51284 12.6396 6.52931C12.651 6.60787 12.7354 6.64036 12.738 6.72629C12.739 6.75668 12.6353 6.81204 12.6255 6.85119C12.6157 6.89032 12.6227 6.95079 12.6834 6.94299C12.7442 6.93512 12.8798 6.80494 12.9174 6.82987C13.0815 6.93795 13.0996 7.14424 13.1951 7.29909C13.2094 7.32203 13.2526 7.26523 13.2777 7.29615C13.3702 7.41028 13.5786 7.57388 13.5315 7.76042C13.4933 7.91021 13.3411 7.85931 13.3469 7.94971C13.3497 7.99336 13.5642 7.89523 13.5757 7.8983C13.69 7.92719 13.6423 8.03468 13.7161 8.08061C13.7315 8.09005 13.7999 8.02346 13.8121 8.03205C13.8546 8.06089 13.85 8.12505 13.884 8.15716C13.8994 8.17143 13.9573 8.12708 13.9641 8.1453C13.9811 8.18843 13.98 8.23764 13.9497 8.31183C13.9469 8.31861 13.8554 8.34867 13.8726 8.37739C13.9007 8.42366 13.8844 8.51634 13.9798 8.52621C14.0084 8.52899 14.1488 8.43343 14.076 8.53156C14.0608 8.55208 13.8861 8.65923 14.0592 8.59636C14.0879 8.58612 14.3319 8.51268 14.2278 8.63042C14.2004 8.66144 14.0769 8.7774 14.1119 8.78026C14.1172 8.78028 14.186 8.7184 14.2044 8.72803C14.2682 8.76286 14.3009 8.8228 14.365 8.85955C14.3823 8.86924 14.4457 8.79355 14.4691 8.80968C14.5334 8.85391 14.5684 8.94024 14.5864 9.01435C14.5929 9.04177 14.5153 9.07303 14.5093 9.07952C14.4099 9.18512 14.5799 9.09033 14.5955 9.09204C14.6896 9.10438 14.6437 9.19452 14.6989 9.22757C14.714 9.23681 14.7837 9.17503 14.7925 9.1729C14.8795 9.15353 14.7268 9.22836 14.7243 9.25563C14.717 9.33236 14.7627 9.38087 14.8087 9.42182C14.8257 9.43678 14.9005 9.35545 14.9147 9.36955C15.001 9.45177 15.0663 9.55396 15.085 9.67921C15.0883 9.70291 15.01 9.7404 14.9966 9.75498C14.9028 9.85678 15.0831 9.78764 15.1041 9.78581C15.1995 9.77755 15.1482 9.83502 15.185 9.8603C15.3664 9.9827 15.4774 10.2115 15.5669 10.3831C15.6845 10.6062 15.7306 10.8104 15.8922 10.9891C15.9024 11.0005 15.9927 10.9198 16.0029 10.9288C16.1292 11.047 16.1904 11.2067 16.322 11.3217C16.3326 11.3312 16.4168 11.2491 16.4372 11.2621C16.4797 11.2884 16.5099 11.338 16.507 11.396C16.5058 11.4242 16.4043 11.4573 16.4047 11.4845C16.4054 11.5482 16.4325 11.5983 16.4809 11.6309C16.5017 11.6446 16.5805 11.5482 16.5999 11.5713C16.7338 11.7275 16.8745 11.8746 16.867 12.1306C16.8665 12.1482 16.6658 12.3011 16.7236 12.2979C16.7828 12.26 16.8508 12.2132 16.9132 12.1715C17.1267 12.3862 17.2316 12.6717 17.3994 12.9187C17.4066 12.9291 17.5076 12.8333 17.522 12.853C17.6057 12.9667 17.7213 13.0535 17.6931 13.2479C17.6905 13.2671 17.4819 13.4015 17.538 13.4142C17.548 13.4163 17.6132 13.4486 17.6676 13.4312C17.6757 13.4284 17.7644 13.3533 17.7796 13.3678C17.8658 13.4529 17.9193 13.5674 17.9314 13.7033C17.9332 13.7254 17.8176 13.78 17.8179 13.7964C17.8206 13.9121 17.9625 13.9424 17.9228 14.082C17.8956 14.1758 17.7013 14.2815 17.5423 14.4307C17.5199 14.4518 17.5381 14.4858 17.4354 14.5588C17.1772 14.7424 16.881 14.9234 16.607 15.1208C16.5614 15.1537 16.6062 15.1604 16.5546 15.1959C16.5546 15.1959 16.5545 15.1959 16.5545 15.1959C16.5393 15.2064 16.5157 15.2194 16.479 15.2362C16.4681 15.2411 16.4 15.2427 16.346 15.2687C16.3086 15.2866 16.2093 15.3688 16.1589 15.3876C16.1087 15.4063 16.1894 15.3335 16.127 15.3501C16.064 15.3672 15.9493 15.4575 15.9126 15.4304ZM10.6969 4.67737C10.6579 4.7455 10.8762 4.60168 10.803 4.60721C10.7992 4.60765 10.6987 4.67397 10.6969 4.67737ZM8.26998 1.33785C8.2244 1.42327 8.34724 1.37589 8.38411 1.3124C8.42064 1.24914 8.28362 1.312 8.26998 1.33785ZM7.95179 0.995468C7.92746 1.07542 8.15376 0.929881 8.07628 0.915397C8.07184 0.914509 7.95317 0.990819 7.95179 0.995468ZM17.4035 14.3408C17.3989 14.3446 17.41 14.3704 17.4152 14.3676C17.5404 14.2994 17.5178 14.248 17.4035 14.3408ZM7.6352 0.656281C7.61576 0.689379 7.67569 0.705038 7.69996 0.663837C7.71937 0.630753 7.65924 0.615185 7.6352 0.656281ZM11.4784 6.29914C11.4752 6.30201 11.4832 6.32049 11.503 6.30638C11.5668 6.26089 11.5329 6.25084 11.4784 6.29914ZM7.1875 0.0176996C7.24636 0.117056 7.1194 0.28904 7.0683 0.171923C7.05893 0.150794 7.14814 0.176477 7.14679 0.14232C7.1438 0.0801679 7.02155 0.121529 7.04615 0.0391111C7.05053 0.024236 7.18439 0.0118675 7.18784 0.0177102C7.18773 0.0177106 7.18761 0.0177024 7.1875 0.0176996ZM10.45 4.87085C10.4475 4.87336 10.4603 4.89778 10.4635 4.89638C10.5403 4.86157 10.5144 4.81251 10.45 4.87085ZM11.9776 7.35608C11.9714 7.36222 12.0002 7.41946 12.008 7.41666C12.1584 7.3535 12.0995 7.23815 11.9776 7.35608ZM9.26588 3.44765C9.18815 3.46481 9.1615 3.43977 9.22446 3.36762C9.23696 3.39505 9.25301 3.42028 9.26588 3.44765Z" fill="#D3A373"/>
<path d="M15.5851 12.9683C15.4557 12.8988 15.2354 12.7677 15.0355 12.6451C14.832 12.5202 14.645 12.4017 14.597 12.3657C14.5642 12.3411 14.4899 12.2875 14.4299 12.2474C14.0842 12.0167 13.5946 11.5722 13.3267 11.2499C12.9128 10.7518 12.6513 10.2904 12.3892 9.59271C12.1083 8.84494 11.7318 8.1445 11.3136 7.5896C11.2378 7.48906 11.0826 7.31934 10.9225 7.15625C10.7621 6.99285 10.6004 6.84011 10.5132 6.77344C10.4478 6.72351 10.3719 6.66507 10.3446 6.64032C10.3349 6.63148 10.3092 6.61263 10.2733 6.58767C10.2387 6.56356 10.1969 6.53604 10.157 6.50926C10.0764 6.45517 9.97681 6.38676 9.93696 6.35755C9.85823 6.29983 9.73861 6.23887 9.21797 5.98707C9.00167 5.88245 8.90125 5.83373 8.79529 5.79897C8.68912 5.76415 8.57707 5.74273 8.33646 5.69464C7.45709 5.51887 6.71384 5.59626 6.09711 5.92197C5.95398 5.9976 5.85934 6.05226 5.77645 6.11232C5.69384 6.17219 5.62082 6.23891 5.52168 6.34024C5.20112 6.66787 4.94923 7.03098 4.75464 7.45392C4.69271 7.58854 4.61798 7.80682 4.5549 8.02775C4.49181 8.24874 4.44075 8.46812 4.4247 8.60546C4.34515 9.28654 4.40513 9.90792 4.70939 10.4971C4.75739 10.59 4.79674 10.676 4.82325 10.7429C4.83645 10.7762 4.84706 10.8066 4.85354 10.8306C4.85672 10.8423 4.85878 10.854 4.86009 10.8645C4.86119 10.8734 4.86268 10.8883 4.85804 10.9028L4.85625 10.9084C4.85157 10.9229 4.84167 10.9341 4.8356 10.9407C4.82841 10.9485 4.82002 10.9567 4.81053 10.9645C4.79133 10.9801 4.76528 10.9978 4.73513 11.0172C4.67465 11.0561 4.5927 11.103 4.4994 11.1507C3.90662 11.4535 3.44364 11.9089 3.11301 12.5064C3.04608 12.6275 2.95885 12.8353 2.88146 13.0516C2.80417 13.2677 2.73801 13.488 2.70992 13.6335C2.62175 14.0906 2.61512 14.5325 2.68483 14.9855C2.7064 15.1256 2.72696 15.2224 2.75919 15.3192C2.7916 15.4163 2.83664 15.5157 2.909 15.6606C3.2206 16.2848 3.77925 16.7812 4.59666 17.1506C4.82023 17.2516 4.92388 17.2995 5.0304 17.333C5.13675 17.3664 5.24698 17.3854 5.48355 17.4263C6.05279 17.5247 6.18621 17.5449 6.28379 17.5439C6.33316 17.5433 6.45401 17.5457 6.55098 17.5487C6.59921 17.5501 6.65013 17.5515 6.69247 17.5521C6.73594 17.5527 6.76717 17.552 6.78016 17.5505C6.81669 17.5462 6.9123 17.5439 6.99439 17.5414C7.10412 17.538 7.32454 17.508 7.55012 17.4686C7.77514 17.4293 8.00009 17.3817 8.12041 17.3441C8.78349 17.1366 9.49759 16.7864 10.1614 16.3422C10.781 15.9275 11.263 15.7043 11.8898 15.5404C12.2955 15.4345 12.9524 15.3582 13.3676 15.3721C13.4396 15.3745 13.5301 15.3748 13.5712 15.3739C13.6307 15.3725 13.8518 15.3851 14.0903 15.4022C14.324 15.4189 14.5792 15.4416 14.725 15.4604L16.9522 14.8015L15.5851 12.9683Z" fill="#D3A373" stroke="#D3A373" stroke-width="0.1"/>
<path d="M17.386 16.4239C17.2996 16.4848 17.1599 16.476 17.0467 16.446C17.0113 16.4367 17.0043 16.3581 16.9788 16.3485C16.9291 16.3297 16.9019 16.3759 16.851 16.3516C16.8341 16.3432 16.8155 16.2211 16.7985 16.215C16.7059 16.1828 16.642 16.2316 16.5566 16.2269C16.1358 16.2041 15.7462 16.2619 15.343 16.3146C15.21 16.3319 15.0246 16.2736 14.9058 16.3532C14.8919 16.3626 14.93 16.4566 14.9295 16.4653C14.9199 16.5992 14.8769 16.4005 14.8391 16.3828C14.6894 16.3131 14.5546 16.3413 14.451 16.4092C14.407 16.4384 14.5123 16.6134 14.4315 16.521C14.4259 16.5148 14.4082 16.4108 14.3916 16.4038C14.3541 16.388 14.3019 16.4218 14.2761 16.4203C14.2261 16.4169 14.2189 16.42 14.1757 16.4307C14.1165 16.4444 14.0321 16.4143 13.9761 16.4542C13.9642 16.463 14.0124 16.5595 13.9961 16.5825C13.9799 16.6056 13.9206 16.6123 13.8944 16.5937C13.8682 16.5751 13.8525 16.4936 13.8437 16.4764C13.77 16.3309 13.7682 16.5613 13.7613 16.5686C13.6343 16.6996 13.4665 16.6157 13.3226 16.6562C13.2134 16.687 13.108 16.7579 13.0022 16.7812C12.8761 16.8085 12.7553 16.7853 12.6375 16.8277C12.625 16.832 12.6737 16.9406 12.6585 16.946C12.4972 17.004 12.3293 17.0358 12.1426 17.0066C12.1239 17.0036 12.1161 16.901 12.0957 16.8923C11.971 16.8404 11.756 16.699 11.8204 17.1304C11.7472 17.133 11.6593 17.1389 11.5734 17.0731C11.5181 17.0308 11.5255 16.9174 11.4904 16.9749C11.4824 16.9878 11.5235 17.0736 11.5095 17.086C11.4505 17.138 11.3666 17.1299 11.3122 17.1948C11.3012 17.2082 11.3289 17.2868 11.3292 17.3022C11.3309 17.4271 11.2185 17.2504 11.2024 17.24C11.0802 17.1619 11.0259 17.2214 10.9402 17.2425C10.9203 17.2474 10.9752 17.3461 10.9571 17.3545C10.8632 17.3966 10.7584 17.4152 10.6482 17.3958C10.6236 17.3913 10.6169 17.2976 10.6038 17.2909C10.5465 17.2628 10.5863 17.4319 10.5322 17.4079C10.5209 17.4031 10.5035 17.3265 10.4994 17.3187C10.4345 17.1966 10.4669 17.3864 10.4614 17.3923C10.3931 17.4708 10.2819 17.2958 10.2083 17.3461C10.1995 17.3523 10.2497 17.4399 10.2233 17.4514C10.0476 17.5285 9.84568 17.5562 9.64243 17.5346C9.61087 17.5314 9.61048 17.4572 9.60617 17.4492C9.53778 17.3257 9.57202 17.5077 9.5648 17.5169C9.50652 17.585 9.39487 17.4578 9.40793 17.6798C9.07916 17.6949 8.80671 17.8928 8.44869 17.8011C8.4442 17.8002 8.42657 17.7162 8.41773 17.7147C8.31113 17.6958 8.36712 17.818 8.35184 17.9899C8.34791 18.0329 8.24486 17.8599 8.23664 17.8476C8.2064 17.8017 8.18601 17.6766 8.17801 17.6683C8.11319 17.6046 8.23934 18.0007 8.18241 18.0166C8.18043 18.0164 8.16602 17.9413 8.15907 17.9354C8.13742 17.9168 8.13141 17.95 8.10939 17.929C8.05878 17.8803 7.98957 17.6922 7.97243 17.8186C7.97035 17.8349 8.0471 18.0555 7.99311 18.0591C7.97154 18.0604 7.88301 18.0893 7.8536 18.082C7.82422 18.0748 7.8201 17.9987 7.81739 17.9961C7.7217 17.9214 7.73562 17.8751 7.66029 17.7463C7.58521 17.6183 7.69331 17.945 7.69054 17.9857C7.6877 18.0263 7.61513 17.9635 7.595 17.9404C7.57485 17.9172 7.57656 17.868 7.56125 17.856C7.46025 17.7787 7.57854 18.0277 7.57048 18.0864C7.55148 18.2247 7.43568 17.9954 7.37784 17.9871C7.36217 17.9848 7.3898 18.0362 7.37907 18.0449C7.3363 18.0784 7.28476 18.0125 7.24994 18.0968C7.24426 18.1106 7.24229 18.2662 7.18195 18.1697C7.17333 18.1558 7.16726 18.0933 7.14259 18.0861C7.10572 18.0753 7.04621 18.0789 7.01885 18.1082C6.99866 18.1299 7.05573 18.2183 7.01582 18.1972C6.99808 18.1878 7.00662 18.1239 6.97471 18.1111C6.94296 18.0982 6.87816 18.12 6.85379 18.1293C6.82949 18.1386 6.86486 18.2071 6.86432 18.2126C6.86053 18.2442 6.82309 18.2928 6.81883 18.2939C6.60777 18.363 6.37532 18.3005 6.17955 18.4003C6.16414 18.4079 6.19701 18.4782 6.19488 18.4802C6.14824 18.5268 6.1338 18.3191 6.07538 18.2655C6.12553 18.4124 6.09448 18.3923 6.06008 18.42C6.04353 18.4334 6.07101 18.4877 6.07104 18.4941C6.06898 18.589 6.01575 18.4823 6.00387 18.4609C5.96003 18.3821 5.96961 18.4875 5.94011 18.4349C5.91078 18.3829 5.91504 18.2916 5.8778 18.3039C5.88299 18.3596 5.95212 18.4888 5.93017 18.5193C5.84723 18.6341 5.6134 18.5846 5.52348 18.5993C5.43359 18.6135 5.40843 18.631 5.35247 18.6273C5.25142 18.6208 5.31422 18.7092 5.2709 18.77C5.22737 18.8306 5.18323 18.5832 5.15963 18.5341C5.13622 18.485 5.14337 18.5406 5.12497 18.5154C5.10662 18.4901 5.11755 18.4486 5.09112 18.4452C5.06472 18.4418 5.02837 18.5523 5.03606 18.6081C5.05245 18.7263 5.1168 18.8366 5.04238 18.8125C5.03808 18.8111 5.03098 18.7455 5.01547 18.7432C4.89295 18.7267 4.7798 18.7568 4.65948 18.7472C4.64291 18.7458 4.63589 18.6741 4.62602 18.6726C4.52332 18.6565 4.58957 18.7608 4.57793 18.901C4.5388 18.7302 4.48086 18.6359 4.41259 18.656C4.3715 18.6679 4.4003 18.7384 4.3891 18.7974C4.38574 18.8151 4.34187 18.7741 4.34679 18.8097C4.36271 18.9258 4.42732 19.0421 4.34193 19.0127C4.33814 19.0113 4.32984 18.9479 4.31806 18.9473C4.24184 18.9435 4.2681 19.061 4.1974 19.0959C4.14197 19.1231 4.01694 19.0833 3.94697 19.0914C3.89431 18.9106 3.84401 18.971 3.85546 19.1018C3.81069 19.1093 3.76604 19.1296 3.71917 19.1248C3.70306 19.1232 3.69712 19.0691 3.69364 19.0641C3.6398 18.9853 3.65665 19.1097 3.64869 19.117C3.56099 19.1912 3.45205 19.1266 3.38136 19.2408C3.37887 19.2449 3.40931 19.3666 3.35719 19.2863C3.35372 19.2807 3.36923 19.2169 3.32256 19.2258C3.27583 19.2346 3.17125 19.1962 3.12467 19.2694C3.1134 19.2871 3.10337 19.3937 3.05004 19.328C3.04289 19.3191 3.03731 19.2842 3.02575 19.2672C2.98866 19.2133 3.01361 19.3346 2.96092 19.2409C2.90822 19.1471 2.83908 19.0872 2.79635 19.1752C2.79494 19.1779 2.8077 19.275 2.78729 19.2794C2.75471 19.2865 2.70376 19.2809 2.67071 19.2914C2.65489 19.2965 2.68211 19.3503 2.67966 19.3522C2.58201 19.4155 2.49058 19.3874 2.36949 19.4003C2.34729 19.4026 2.30938 19.4958 2.25085 19.4484C2.18673 19.3969 2.15174 19.1132 2.06887 19.2101C2.03554 19.2495 2.08419 19.6025 1.95753 19.4506C1.82607 19.5369 1.66663 19.4903 1.53997 19.594C1.53426 19.5987 1.54071 19.6951 1.525 19.6983C1.50165 19.703 1.47659 19.6647 1.45954 19.6668C1.38779 19.6746 1.33622 19.7287 1.26896 19.7427C1.24347 19.7481 1.23942 19.7029 1.20905 19.7095C1.17873 19.7162 1.17561 19.7777 1.12736 19.7629C1.09086 19.7515 1.02675 19.6479 0.982716 19.6475C1.01438 19.7587 0.986065 19.7649 0.945596 19.8087C0.937827 19.8172 0.959438 19.8524 0.956352 19.8584C0.944028 19.8834 0.917681 19.8568 0.906784 19.8833C0.904115 19.8896 0.915109 19.9271 0.913552 19.9344C0.900685 19.9977 0.827282 19.9279 0.814687 19.9159C0.766446 19.8702 0.766045 19.9227 0.735229 19.9083C0.704485 19.894 0.732702 19.8561 0.700445 19.8516C0.633635 19.8424 0.560041 19.8714 0.499932 19.8879C0.476018 19.8947 0.506682 19.9379 0.503592 19.94C0.457966 19.9668 0.393019 19.9312 0.394113 20.0341C0.286569 19.7994 0.371525 20.0668 0.286368 20.0386C0.279631 20.0362 0.238217 19.9237 0.254381 19.9002C0.270532 19.8767 0.313531 19.9028 0.33504 19.8672C0.34018 19.8589 0.347428 19.7374 0.350847 19.7289C0.377841 19.6633 0.436219 19.836 0.44137 19.845C0.49809 19.9408 0.511488 19.8075 0.52181 19.7951C0.569248 19.7389 0.626609 19.748 0.667555 19.7053C0.694394 19.6775 0.662301 19.5589 0.688496 19.5542C0.775462 19.5381 0.854664 19.6955 0.890169 19.5254C0.897809 19.489 0.841684 19.3632 0.933056 19.4464C0.938776 19.4515 1.0122 19.5319 1.02011 19.4632C1.02109 19.4545 1.00941 19.4159 1.01273 19.4112C1.03519 19.3806 1.06363 19.4051 1.09053 19.3798C1.11742 19.3545 1.14838 19.3195 1.18812 19.3208C1.21204 19.3215 1.26172 19.3857 1.27747 19.4004C1.32226 19.4429 1.32798 19.3473 1.36502 19.4046C1.40238 19.4624 1.39548 19.5701 1.45592 19.5965C1.42667 19.4924 1.39888 19.3848 1.37048 19.2796C1.47615 19.2482 1.58933 19.248 1.69301 19.2086C1.70582 19.2036 1.67536 19.1508 1.68863 19.1439C1.74469 19.1149 1.80842 19.1388 1.86452 19.1019C1.90788 19.0732 1.94107 18.9938 1.98562 18.9611C2.05326 19.076 2.11387 19.0091 2.17053 19.0027C2.19038 19.0004 2.1993 19.0348 2.21589 19.0414C2.27829 19.0659 2.22108 18.9611 2.22948 18.9388C2.26551 18.8429 2.34725 19.0972 2.41505 19.0686C2.41869 19.0673 2.42245 18.9148 2.42602 18.904C2.44852 18.8347 2.44693 18.9499 2.47462 18.9519C2.52519 18.9556 2.56648 18.9788 2.60703 18.9205C2.61882 18.9034 2.62949 18.8036 2.67964 18.8613C2.68623 18.8689 2.69799 18.9161 2.70197 18.9178C2.77295 18.9445 2.73054 18.7975 2.74825 18.7365C2.76593 18.6754 2.84689 18.7601 2.86605 18.7863C2.91583 18.8537 2.85518 18.8257 2.85597 18.8337C2.86547 18.9282 2.89781 18.9008 2.92831 18.8992C2.97601 19.0435 3.01302 19.0224 2.95975 18.897C2.95387 18.8834 2.93597 18.9041 2.92831 18.8992C2.91032 18.7485 2.94783 18.7148 3.03605 18.8338C3.0774 18.8896 3.07826 18.9701 3.13846 18.9215C3.16578 18.8995 3.12331 18.8015 3.14224 18.7648C3.18543 18.6806 3.29499 18.7496 3.35473 18.7136C3.37638 18.7004 3.33669 18.6512 3.35088 18.6402C3.38846 18.6106 3.43852 18.6411 3.47435 18.605C3.47756 18.6017 3.45022 18.5449 3.46316 18.5397C3.56087 18.499 3.65943 18.5085 3.76409 18.4748C3.81465 18.4585 3.89452 18.3942 3.94873 18.3834C4.04255 18.3643 4.18133 18.4187 4.25208 18.371C4.29825 18.34 4.26815 18.2802 4.27675 18.2296C4.29313 18.1312 4.41205 18.2571 4.42911 18.2775C4.42965 18.2782 4.39076 18.3077 4.42378 18.3329C4.4578 18.3971 4.42871 18.278 4.42911 18.2775C4.44017 18.2905 4.5313 18.2764 4.54483 18.2584C4.55216 18.2485 4.52857 18.189 4.53274 18.185C4.63212 18.0912 4.74306 18.0352 4.8692 18.0246C4.87165 18.0252 4.88955 18.0964 4.89505 18.0969C4.97247 18.1054 4.99024 18.0048 5.03078 17.934C5.07133 17.8633 5.12075 17.8649 5.19077 17.9766C5.22844 17.9469 5.30548 17.9809 5.35045 18.0027C5.39542 18.0244 5.35809 17.882 5.36032 17.8781C5.42933 17.7562 5.50885 17.818 5.61214 17.7974C5.6613 17.7877 5.74881 17.7352 5.79519 17.7019C5.83177 17.6753 5.86634 17.7011 5.89704 17.6666C5.9012 17.662 5.87666 17.5988 5.87745 17.5958C5.89564 17.5036 5.92333 17.6695 5.94042 17.695C6.00251 17.7877 6.03841 17.8368 6.07715 17.7704C6.08614 17.7552 6.05274 17.5123 6.07097 17.4908C6.09486 17.4635 6.10879 17.5504 6.13319 17.5198C6.1353 17.5172 6.11938 17.4661 6.13882 17.4618C6.22886 17.4413 6.33293 17.4386 6.42195 17.4021C6.43416 17.3973 6.39348 17.32 6.41069 17.3116C6.4915 17.2724 6.58414 17.2429 6.67759 17.2538C6.70068 17.2568 6.70576 17.3202 6.71538 17.3362C6.77402 17.4332 6.76583 17.2658 6.77118 17.2606C6.89828 17.1337 7.05518 17.2357 7.18736 17.1151C7.19452 17.1085 7.20719 16.9154 7.27954 17.0519C7.28438 17.0608 7.35761 17.2013 7.35177 17.09C7.35139 17.083 7.31064 17.0118 7.34363 17.0089C7.37666 17.0062 7.41033 16.9368 7.47814 17.0078C7.49953 17.03 7.57658 17.171 7.58017 17.0363C7.58032 17.0273 7.55938 16.7311 7.6381 16.913C7.65101 16.943 7.70753 17.1453 7.72421 17.0259C7.72729 17.0028 7.69735 16.9636 7.71285 16.9272C7.73648 16.8711 7.80128 16.9085 7.81917 16.8023C7.82225 16.7837 7.81418 16.6336 7.87237 16.729C7.88149 16.7439 7.89391 16.8148 7.91035 16.8175C7.98864 16.8306 8.04538 16.7602 8.128 16.784C8.15724 16.7923 8.17823 16.908 8.21249 16.9293C8.24675 16.9506 8.30646 16.9625 8.31759 16.9023C8.3287 16.842 8.24622 16.6731 8.28147 16.6449C8.43456 16.5217 8.63651 16.5676 8.81316 16.524C8.83934 16.5175 8.79848 16.4589 8.83561 16.4445C8.97256 16.3913 9.19205 16.243 9.35524 16.3449C9.48617 16.4271 9.39116 16.5564 9.47901 16.5785C9.52141 16.5892 9.49361 16.3549 9.50006 16.3449C9.56253 16.2449 9.65025 16.3233 9.71657 16.267C9.73024 16.2553 9.68777 16.1698 9.69969 16.1608C9.74015 16.1291 9.79983 16.1531 9.8408 16.1306C9.85911 16.1203 9.83459 16.0516 9.85401 16.0507C9.90027 16.0477 9.94678 16.0638 10.0082 16.1153C10.0138 16.12 10.0144 16.2164 10.047 16.2088C10.0996 16.1962 10.1829 16.2401 10.2215 16.1522C10.2329 16.1259 10.1848 15.963 10.256 16.0623C10.2709 16.083 10.3195 16.2821 10.3125 16.0981C10.3116 16.0677 10.3163 15.8129 10.3965 15.9481C10.4177 15.9836 10.4903 16.1367 10.5038 16.1042C10.5054 16.0991 10.4675 16.0147 10.4823 16.0001C10.535 15.95 10.6021 15.9372 10.6567 15.8874C10.6712 15.8739 10.6185 15.7904 10.641 15.7732C10.7028 15.7254 10.7957 15.7185 10.8717 15.724C10.8998 15.7262 10.9059 15.8096 10.9102 15.8174C10.9803 15.9443 10.9421 15.7534 10.9485 15.7392C10.989 15.6534 11.0608 15.7246 11.1092 15.6821C11.1226 15.6706 11.0851 15.5854 11.0857 15.5764C11.0939 15.4875 11.1184 15.6559 11.1436 15.6665C11.2145 15.697 11.2746 15.6683 11.3277 15.637C11.3471 15.6254 11.2926 15.5293 11.3103 15.5201C11.415 15.4631 11.5323 15.4322 11.6572 15.4527C11.6808 15.4568 11.6926 15.5428 11.7024 15.56C11.7706 15.6804 11.7599 15.4877 11.7646 15.4671C11.7859 15.3738 11.8249 15.4402 11.8602 15.4129C12.0323 15.2776 12.284 15.2419 12.4748 15.2092C12.7232 15.1655 12.9317 15.184 13.1512 15.0848C13.1652 15.0786 13.1161 14.9679 13.1277 14.961C13.2788 14.8769 13.4496 14.8675 13.5993 14.7774C13.6117 14.7701 13.5592 14.6649 13.5779 14.6494C13.6159 14.617 13.6723 14.6035 13.7267 14.6239C13.7532 14.6337 13.7536 14.7405 13.7797 14.7484C13.8405 14.7672 13.8965 14.7567 13.9424 14.7206C13.9618 14.705 13.8941 14.6005 13.922 14.5891C14.1117 14.5094 14.2948 14.4204 14.5362 14.5059C14.5528 14.5118 14.637 14.7496 14.6517 14.6935C14.6337 14.6256 14.6099 14.5466 14.5893 14.4744C14.8589 14.3368 15.1629 14.3242 15.4494 14.24C15.4615 14.2364 15.4012 14.1109 15.4243 14.1032C15.5581 14.0583 15.6762 13.9748 15.8527 14.0611C15.8701 14.0695 15.9343 14.3091 15.9635 14.2597C15.9686 14.2507 16.0193 14.1985 16.0193 14.1414C16.0191 14.1329 15.9748 14.0254 15.9932 14.0155C16.1006 13.9593 16.2261 13.9434 16.3591 13.9735C16.3806 13.9786 16.3973 14.1053 16.413 14.11C16.5239 14.1429 16.5963 14.0171 16.717 14.0976C16.798 14.1521 16.8392 14.3694 16.9326 14.5664C16.9458 14.5942 16.9838 14.5873 17.0219 14.7074C17.1177 15.0094 17.1994 15.3468 17.3036 15.668C17.3209 15.7215 17.3411 15.6809 17.3591 15.7409C17.3591 15.7409 17.3591 15.7409 17.3591 15.7409C17.3644 15.7586 17.3695 15.7851 17.3743 15.8252C17.3756 15.837 17.3563 15.9024 17.3645 15.9617C17.3701 16.0028 17.418 16.1225 17.4205 16.1762C17.423 16.2298 17.3783 16.1306 17.3751 16.1952C17.3721 16.2604 17.423 16.3972 17.386 16.4239ZM5.55295 18.1007C5.60591 18.1586 5.53572 17.9068 5.5186 17.9782C5.51786 17.9819 5.55028 18.0979 5.55295 18.1007ZM1.63119 19.3898C1.69857 19.4593 1.69104 19.3279 1.64186 19.2734C1.5928 19.2192 1.61075 19.3689 1.63119 19.3898ZM1.20789 19.588C1.27656 19.6356 1.20722 19.3757 1.16973 19.445C1.16753 19.449 1.20388 19.5853 1.20789 19.588ZM16.8046 14.6711C16.8067 14.6767 16.8347 14.6739 16.8337 14.6681C16.807 14.5281 16.7512 14.5339 16.8046 14.6711ZM0.788124 19.7857C0.813689 19.8143 0.846927 19.7621 0.815125 19.7264C0.789562 19.6978 0.75635 19.7502 0.788124 19.7857ZM7.33604 17.8526C7.33778 17.8566 7.35783 17.8546 7.35046 17.8314C7.32668 17.7567 7.30672 17.786 7.33604 17.8526ZM0.0432112 20.0166C0.15581 19.991 0.280719 20.1645 0.153584 20.1773C0.130601 20.1797 0.182342 20.1027 0.149407 20.0935C0.0893182 20.0773 0.0913067 20.2064 0.0203618 20.1578C0.00753935 20.149 0.0367063 20.0178 0.0433266 20.0163C0.0432927 20.0164 0.0432488 20.0165 0.0432112 20.0166ZM5.66164 18.3949C5.66328 18.398 5.69045 18.3933 5.69009 18.3898C5.68045 18.306 5.62579 18.3157 5.66164 18.3949ZM8.49503 17.7006C8.49895 17.7084 8.56228 17.6985 8.56198 17.6902C8.54786 17.5277 8.42002 17.5485 8.49503 17.7006ZM3.94448 19.0869C3.93704 19.1662 3.90506 19.1839 3.85562 19.1019C3.88556 19.0984 3.91448 19.0908 3.94448 19.0869Z" fill="#D3A373"/>
<path d="M14.9419 15.9826C14.8361 16.0845 14.6439 16.2541 14.4661 16.4069C14.2849 16.5625 14.1149 16.7043 14.066 16.739C14.0324 16.7627 13.9587 16.817 13.9022 16.8619C13.5768 17.1205 13.0039 17.4507 12.615 17.6071C12.0143 17.8489 11.495 17.9567 10.7506 17.9928C9.95271 18.0315 9.17068 18.1757 8.51447 18.4042C8.39556 18.4456 8.18651 18.5414 7.98227 18.644C7.77763 18.7468 7.58274 18.854 7.49259 18.9166C7.42507 18.9636 7.34621 19.018 7.3143 19.0364C7.30291 19.043 7.2771 19.0616 7.24237 19.0882C7.20882 19.1138 7.16983 19.1452 7.13212 19.175C7.05598 19.2351 6.96039 19.309 6.9204 19.338C6.84136 19.3953 6.74674 19.4906 6.34776 19.9092C6.182 20.0832 6.1049 20.1639 6.03939 20.2541C5.97377 20.3446 5.91911 20.4447 5.79973 20.6591C5.36342 21.4425 5.20977 22.1738 5.33123 22.8606C5.35946 23.02 5.38256 23.1268 5.41438 23.2241C5.44611 23.3211 5.48731 23.411 5.55345 23.5364C5.76733 23.9418 6.036 24.2927 6.37915 24.6073C6.48838 24.7075 6.67334 24.8454 6.86439 24.973C7.05549 25.1007 7.24874 25.2164 7.37459 25.2737C7.9987 25.5577 8.60865 25.6907 9.2626 25.5812C9.36576 25.5639 9.45973 25.5528 9.53148 25.548C9.56725 25.5456 9.59947 25.5448 9.62423 25.5459C9.63641 25.5465 9.64816 25.5481 9.6585 25.5501C9.66732 25.5518 9.68201 25.5549 9.69436 25.5638L9.69912 25.5672C9.71156 25.5761 9.7192 25.5889 9.7236 25.5967C9.72879 25.6059 9.73407 25.6164 9.73854 25.6278C9.74759 25.6509 9.75641 25.6811 9.76566 25.7158C9.78422 25.7852 9.80383 25.8776 9.82068 25.981C9.92768 26.638 10.2197 27.2181 10.6874 27.7157C10.7822 27.8164 10.9534 27.963 11.1356 28.1028C11.3177 28.2425 11.5073 28.3729 11.6371 28.4441C12.0454 28.6679 12.4641 28.8094 12.9167 28.8816C13.0567 28.9039 13.1552 28.9139 13.2571 28.9128C13.3595 28.9117 13.4679 28.8992 13.6281 28.8746C14.3176 28.7689 14.9611 28.3888 15.5628 27.7236C15.7274 27.5416 15.8046 27.4576 15.8691 27.3664C15.9335 27.2754 15.9852 27.1762 16.0965 26.9635C16.3643 26.4516 16.4244 26.3308 16.4532 26.2376C16.4678 26.1904 16.5071 26.0761 16.5395 25.9847C16.5557 25.9392 16.5725 25.8911 16.5861 25.851C16.5999 25.8098 16.6088 25.7799 16.6114 25.767C16.6185 25.7309 16.6455 25.6392 16.6682 25.5603C16.6985 25.4548 16.7374 25.2357 16.7689 25.0089C16.8003 24.7827 16.8238 24.5539 16.8248 24.4279C16.8301 23.7331 16.7151 22.9461 16.4952 22.1783C16.2899 21.4615 16.2248 20.9343 16.2605 20.2874C16.2837 19.8688 16.412 19.22 16.5522 18.829C16.5765 18.7611 16.6045 18.6751 16.6162 18.6357C16.6331 18.5786 16.7127 18.372 16.8019 18.1501C16.8893 17.9328 16.9889 17.6967 17.0515 17.5637L17.1053 15.2416L14.9419 15.9826Z" fill="#D3A373" stroke="#D3A373" stroke-width="0.1"/>
<path d="M18.7826 15.3248C18.8143 15.4256 18.7631 15.556 18.6999 15.6545C18.6803 15.6854 18.6033 15.6681 18.5863 15.6894C18.5533 15.7309 18.5889 15.771 18.5502 15.812C18.537 15.8255 18.4151 15.8059 18.4041 15.8202C18.3452 15.8985 18.3721 15.9743 18.3414 16.0542C18.191 16.4478 18.1269 16.8364 18.0537 17.2364C18.0295 17.3683 17.9173 17.527 17.9568 17.6645C17.9614 17.6806 18.0626 17.673 18.0708 17.6762C18.1953 17.7263 17.9929 17.7065 17.9646 17.737C17.8524 17.8583 17.8381 17.9952 17.871 18.1147C17.8853 18.1655 18.0841 18.1187 17.9714 18.1674C17.9638 18.1708 17.8595 18.1559 17.8477 18.1695C17.8211 18.2004 17.8374 18.2604 17.828 18.2846C17.8096 18.3311 17.8103 18.3389 17.8073 18.3833C17.8021 18.4439 17.7477 18.515 17.7686 18.5805C17.7733 18.5945 17.8799 18.5782 17.8969 18.6007C17.9138 18.6232 17.9021 18.6817 17.8764 18.701C17.8507 18.7203 17.7683 18.7102 17.7492 18.7133C17.5882 18.739 17.8069 18.8112 17.8118 18.82C17.8976 18.981 17.7665 19.115 17.761 19.2645C17.7569 19.3779 17.7922 19.5 17.782 19.6078C17.7694 19.7362 17.7104 19.8441 17.7147 19.9692C17.7151 19.9824 17.8333 19.9693 17.8338 19.9854C17.8397 20.1567 17.8186 20.3263 17.7337 20.4951C17.7251 20.512 17.6251 20.488 17.6105 20.5048C17.523 20.6076 17.3226 20.7691 17.7531 20.8397C17.7331 20.9102 17.7118 20.9957 17.6229 21.0574C17.5658 21.0971 17.4601 21.0553 17.5041 21.1064C17.5139 21.1179 17.6081 21.105 17.6157 21.1221C17.6471 21.1942 17.6138 21.2717 17.6589 21.3433C17.6683 21.3578 17.7516 21.3555 17.7663 21.3599C17.8858 21.3965 17.6832 21.4495 17.6684 21.4617C17.5566 21.5541 17.5967 21.624 17.5906 21.712C17.5891 21.7325 17.6999 21.7105 17.7024 21.7302C17.7137 21.8325 17.6994 21.938 17.6472 22.0369C17.6354 22.0589 17.5441 22.0367 17.5337 22.0471C17.4894 22.0931 17.6626 22.1069 17.6233 22.1511C17.6152 22.1604 17.537 22.1535 17.5283 22.1551C17.3922 22.1794 17.5828 22.2067 17.5867 22.2137C17.6406 22.3028 17.4399 22.3551 17.4653 22.4406C17.4685 22.4508 17.5673 22.4298 17.5702 22.4585C17.5898 22.6493 17.5544 22.8501 17.4717 23.037C17.459 23.066 17.3882 23.0437 17.3793 23.0454C17.2408 23.0727 17.4246 23.0958 17.4311 23.1055C17.4782 23.1818 17.3229 23.2492 17.5382 23.3046C17.452 23.6223 17.5572 23.9422 17.3603 24.255C17.3581 24.259 17.2727 24.2501 17.2686 24.258C17.218 24.3538 17.3514 24.3378 17.5105 24.405C17.5502 24.4219 17.3539 24.467 17.3397 24.4711C17.2868 24.4859 17.1614 24.467 17.1511 24.4721C17.0706 24.5143 17.4863 24.5154 17.484 24.5744C17.4833 24.5763 17.4073 24.567 17.3996 24.5718C17.3753 24.5867 17.405 24.6026 17.3783 24.6172C17.3165 24.6505 17.1162 24.6588 17.2313 24.7138C17.2462 24.7207 17.4797 24.7152 17.4666 24.7677C17.4613 24.7886 17.4617 24.8817 17.4458 24.9075C17.4299 24.9332 17.3562 24.9139 17.3529 24.9157C17.2525 24.9839 17.2127 24.9565 17.067 24.9889C16.9222 25.0212 17.2663 25.0182 17.3042 25.0333C17.342 25.0484 17.26 25.0983 17.2318 25.1104C17.2036 25.1225 17.1572 25.1058 17.1412 25.1167C17.0367 25.1892 17.3099 25.1528 17.3633 25.1784C17.4892 25.2388 17.2355 25.2789 17.2099 25.3314C17.2029 25.3456 17.2603 25.3351 17.2653 25.3479C17.2841 25.3989 17.2055 25.4278 17.2752 25.4867C17.2866 25.4964 17.4341 25.5458 17.3238 25.5738C17.3079 25.5777 17.2466 25.5644 17.2322 25.5857C17.2106 25.6175 17.1958 25.6752 17.2154 25.7102C17.2298 25.7361 17.3314 25.7088 17.2992 25.7403C17.2848 25.7544 17.2266 25.7267 17.2046 25.7531C17.1826 25.7794 17.1836 25.8478 17.1849 25.8738C17.1864 25.8998 17.2624 25.8871 17.2675 25.8893C17.2964 25.9026 17.3312 25.9531 17.331 25.9575C17.3322 26.1796 17.2016 26.3818 17.2367 26.5987C17.2393 26.6157 17.3163 26.6059 17.3175 26.6085C17.3477 26.6672 17.1455 26.6174 17.0766 26.6566C17.2318 26.6538 17.2031 26.6772 17.2189 26.7184C17.2267 26.7383 17.2868 26.7287 17.2928 26.7307C17.3826 26.7617 17.2648 26.7797 17.2407 26.7845C17.1523 26.8021 17.2555 26.8252 17.1965 26.8372C17.138 26.8492 17.0523 26.8172 17.0527 26.8565C17.1073 26.8686 17.2515 26.8423 17.2738 26.8725C17.3577 26.9866 17.239 27.1941 17.2256 27.2842C17.2116 27.3741 17.2206 27.4034 17.1999 27.4556C17.1628 27.5498 17.2662 27.517 17.3108 27.5768C17.3552 27.6368 17.1062 27.6032 17.0522 27.6106C16.9983 27.6179 17.0534 27.6281 17.0237 27.6379C16.9941 27.6477 16.9579 27.6246 16.9466 27.6487C16.9353 27.6728 17.0294 27.7412 17.0848 27.7509C17.2024 27.7715 17.327 27.7439 17.2814 27.8074C17.2787 27.8111 17.2141 27.7978 17.2072 27.8118C17.154 27.9234 17.148 28.0404 17.1021 28.152C17.0957 28.1673 17.0253 28.1521 17.0208 28.161C16.9741 28.2539 17.0937 28.2227 17.2236 28.2767C17.049 28.2617 16.9415 28.288 16.9397 28.3592C16.9385 28.4019 17.0144 28.396 17.0671 28.4248C17.083 28.4334 17.0306 28.4626 17.0659 28.4688C17.1814 28.4892 17.3118 28.4632 17.2578 28.5355C17.2552 28.5387 17.1924 28.5272 17.1882 28.5383C17.1612 28.6096 17.2812 28.6206 17.2927 28.6986C17.3017 28.7597 17.2256 28.8665 17.2119 28.9356C17.0237 28.9305 17.0658 28.9968 17.1938 29.0259C17.1872 29.0708 17.193 29.1196 17.174 29.1627C17.1675 29.1776 17.1142 29.1667 17.1084 29.1685C17.0169 29.1956 17.1405 29.2176 17.145 29.2274C17.1888 29.3336 17.094 29.4176 17.1811 29.5198C17.1843 29.5235 17.3094 29.5317 17.217 29.5568C17.2107 29.5584 17.1546 29.5241 17.1489 29.5712C17.143 29.6184 17.0743 29.7062 17.1298 29.773C17.1433 29.7891 17.2416 29.8313 17.1628 29.862C17.1522 29.866 17.1172 29.8607 17.0975 29.8665C17.0348 29.8853 17.158 29.8987 17.0526 29.9202C16.9472 29.9416 16.869 29.9891 16.9397 30.0567C16.9418 30.0589 17.0382 30.0765 17.0362 30.0972C17.033 30.1304 17.012 30.1772 17.012 30.2119C17.012 30.2285 17.0715 30.2191 17.0726 30.222C17.103 30.3343 17.0482 30.4128 17.0234 30.532C17.0189 30.5538 17.096 30.6184 17.033 30.6597C16.9644 30.705 16.6835 30.6515 16.7504 30.76C16.7778 30.8038 17.1288 30.8655 16.9453 30.9396C16.9873 31.0911 16.8942 31.2287 16.9542 31.381C16.9569 31.3879 17.0506 31.4112 17.0489 31.4272C17.0462 31.4508 17.0021 31.463 16.9989 31.4799C16.9844 31.5505 17.0201 31.6162 17.0128 31.6845C17.0102 31.7104 16.966 31.7005 16.9629 31.7314C16.96 31.7623 17.0176 31.7841 16.9888 31.8255C16.9667 31.8567 16.8485 31.8861 16.8346 31.9279C16.9503 31.9318 16.9474 31.9606 16.9768 32.0126C16.9825 32.0225 17.0226 32.0128 17.0274 32.0175C17.0475 32.0369 17.014 32.0538 17.0359 32.0723C17.0412 32.0768 17.0802 32.0778 17.0866 32.0815C17.143 32.1131 17.0541 32.1617 17.0388 32.17C16.9805 32.2019 17.0304 32.2184 17.0073 32.2433C16.9842 32.2682 16.9568 32.2298 16.9427 32.2591C16.9134 32.3199 16.9186 32.3988 16.9159 32.4611C16.915 32.4859 16.9656 32.47 16.9666 32.4735C16.9782 32.5252 16.9244 32.5761 17.0228 32.6066C16.7664 32.6372 17.0469 32.6381 16.994 32.7105C16.9897 32.7162 16.8699 32.7212 16.8525 32.6986C16.8351 32.6761 16.8731 32.6431 16.8457 32.6117C16.8394 32.6043 16.726 32.5603 16.7189 32.5544C16.6647 32.5086 16.847 32.5059 16.8571 32.5037C16.9657 32.479 16.8429 32.4255 16.8342 32.4119C16.7952 32.3495 16.8215 32.2977 16.7933 32.2456C16.775 32.2116 16.6523 32.2059 16.6559 32.1795C16.6672 32.0918 16.8412 32.0645 16.6901 31.9787C16.6578 31.9603 16.5209 31.9752 16.628 31.9137C16.6346 31.9098 16.7336 31.8645 16.6706 31.8359C16.6627 31.8324 16.6223 31.8317 16.6189 31.8271C16.5966 31.7963 16.6286 31.7767 16.6128 31.7434C16.5969 31.7101 16.5731 31.6699 16.5865 31.6324C16.5944 31.6099 16.6708 31.5822 16.6896 31.5717C16.7438 31.5421 16.6545 31.5074 16.7204 31.4896C16.7868 31.4718 16.8872 31.5113 16.9309 31.4618C16.8228 31.4578 16.7118 31.4513 16.603 31.4462C16.6054 31.336 16.6398 31.2282 16.6341 31.1174C16.6332 31.1037 16.5736 31.1165 16.5711 31.1018C16.5606 31.0395 16.6029 30.9862 16.585 30.9215C16.5708 30.8714 16.5054 30.8155 16.4879 30.7631C16.618 30.7339 16.5728 30.6557 16.5841 30.5998C16.588 30.5802 16.6234 30.5822 16.6348 30.5685C16.6772 30.5165 16.56 30.539 16.5413 30.5241C16.461 30.4605 16.7281 30.4604 16.7216 30.3872C16.7215 30.3833 16.5774 30.3331 16.5682 30.3264C16.5091 30.2837 16.6183 30.3205 16.6287 30.2948C16.6477 30.2477 16.6824 30.2155 16.6393 30.1591C16.6266 30.1426 16.5349 30.1019 16.6052 30.0718C16.6144 30.0679 16.6629 30.0711 16.6658 30.0679C16.7129 30.0085 16.56 30.0039 16.5073 29.9684C16.4546 29.9328 16.56 29.8817 16.5908 29.8714C16.6701 29.8446 16.625 29.8938 16.6328 29.8955C16.7257 29.9154 16.7096 29.8762 16.7174 29.8467C16.8693 29.8454 16.8606 29.8037 16.7249 29.8161C16.7101 29.8175 16.7243 29.8409 16.7174 29.8467C16.5683 29.8177 16.5477 29.7717 16.688 29.7241C16.7538 29.7018 16.8307 29.7256 16.8028 29.6534C16.7902 29.6207 16.684 29.6312 16.6548 29.6019C16.5878 29.535 16.687 29.4518 16.671 29.3839C16.6651 29.3593 16.6061 29.382 16.5999 29.3651C16.5833 29.3203 16.6276 29.282 16.6043 29.2368C16.6021 29.2328 16.5396 29.2414 16.5386 29.2275C16.5297 29.122 16.5689 29.0311 16.5689 28.9211C16.5688 28.868 16.532 28.7723 16.5384 28.7174C16.5489 28.6222 16.6431 28.5068 16.6193 28.4248C16.604 28.3714 16.5378 28.3817 16.4922 28.3581C16.4035 28.3124 16.5598 28.2377 16.5845 28.2277C16.5853 28.2274 16.6015 28.2734 16.6356 28.2497C16.7071 28.2369 16.5848 28.2282 16.5845 28.2277C16.6002 28.2211 16.6147 28.13 16.6016 28.1116C16.5945 28.1016 16.5306 28.1059 16.5281 28.1007C16.4692 27.9774 16.4498 27.8546 16.4783 27.7313C16.4796 27.7292 16.5529 27.7339 16.555 27.7288C16.5868 27.6577 16.4964 27.61 16.4414 27.5498C16.3866 27.4895 16.4032 27.443 16.5309 27.4105C16.5141 27.3655 16.5701 27.3026 16.6046 27.2664C16.6391 27.2303 16.492 27.2222 16.489 27.2189C16.3941 27.1159 16.4772 27.0591 16.4892 26.9545C16.495 26.9047 16.4717 26.8053 16.4542 26.751C16.4401 26.708 16.4753 26.683 16.4518 26.6432C16.4487 26.6378 16.381 26.6419 16.3784 26.6402C16.2962 26.5947 16.4626 26.6191 16.4921 26.6106C16.5994 26.5799 16.6571 26.5607 16.6057 26.5035C16.594 26.4903 16.3525 26.4478 16.3376 26.4239C16.319 26.3928 16.4059 26.4061 16.3843 26.3735C16.3825 26.3707 16.3289 26.3702 16.3308 26.3504C16.3388 26.2584 16.3681 26.1585 16.3606 26.0626C16.3597 26.0495 16.2736 26.0646 16.2709 26.0456C16.2583 25.9567 16.2586 25.8595 16.2976 25.7738C16.3074 25.7528 16.3694 25.7673 16.3876 25.7631C16.4978 25.7369 16.336 25.6935 16.3326 25.6868C16.2507 25.527 16.3957 25.4088 16.3214 25.2461C16.3173 25.2372 16.1374 25.1661 16.2894 25.139C16.2994 25.1371 16.4556 25.1103 16.3478 25.0819C16.341 25.0801 16.2607 25.0971 16.2681 25.0648C16.2756 25.0325 16.2198 24.9792 16.3082 24.9364C16.3359 24.9228 16.4936 24.8926 16.3666 24.848C16.358 24.8451 16.0695 24.7744 16.2668 24.7551C16.2993 24.752 16.5092 24.76 16.4007 24.7077C16.3796 24.6977 16.3331 24.7142 16.3032 24.6883C16.257 24.6486 16.3125 24.5984 16.2169 24.5489C16.2 24.5402 16.0547 24.502 16.1633 24.4758C16.1803 24.4717 16.2516 24.4815 16.2591 24.4667C16.2956 24.3962 16.2459 24.3206 16.2938 24.2492C16.3107 24.2239 16.4273 24.2393 16.4581 24.2132C16.4888 24.1871 16.5184 24.1339 16.4645 24.1049C16.4105 24.0759 16.2245 24.1028 16.2084 24.0606C16.138 23.8772 16.2434 23.6989 16.2559 23.5174C16.2577 23.4905 16.1895 23.5115 16.1871 23.4717C16.1783 23.325 16.1042 23.0707 16.2512 22.9465C16.3695 22.847 16.4635 22.977 16.5114 22.9001C16.5346 22.863 16.3031 22.8178 16.2955 22.8086C16.2194 22.7186 16.3208 22.659 16.2875 22.5787C16.2806 22.5621 16.1862 22.5763 16.1812 22.5622C16.1635 22.514 16.2046 22.4646 16.1957 22.4187C16.1914 22.3981 16.1185 22.4004 16.1236 22.3816C16.135 22.3367 16.1645 22.2973 16.2323 22.2547C16.2385 22.2508 16.3304 22.2796 16.3332 22.2463C16.3373 22.1923 16.4045 22.1265 16.3327 22.0628C16.3111 22.044 16.1413 22.0399 16.2576 22.0025C16.2819 21.9946 16.4863 22.0093 16.309 21.9596C16.2798 21.9512 16.0386 21.8688 16.1918 21.8337C16.2322 21.8245 16.4001 21.8021 16.3733 21.7794C16.369 21.7763 16.277 21.7866 16.2677 21.768C16.2361 21.7025 16.2444 21.6347 16.2137 21.5675C16.2053 21.5496 16.1097 21.5742 16.1001 21.5475C16.0736 21.4741 16.0954 21.3835 16.1239 21.3128C16.1346 21.2867 16.2158 21.3065 16.2246 21.3047C16.3669 21.2768 16.1734 21.2548 16.1618 21.2443C16.0925 21.1795 16.1823 21.1329 16.1566 21.0739C16.1498 21.0576 16.0571 21.0673 16.0488 21.0639C15.9667 21.0289 16.1345 21.0571 16.1523 21.0363C16.203 20.9782 16.194 20.9121 16.1805 20.8521C16.1754 20.83 16.0673 20.8526 16.0639 20.8328C16.0416 20.7157 16.048 20.5946 16.1058 20.4819C16.1169 20.4607 16.2025 20.4759 16.2218 20.4718C16.3573 20.4437 16.1705 20.3949 16.1524 20.3841C16.07 20.3353 16.1452 20.3185 16.13 20.2765C16.0538 20.0713 16.0968 19.8207 16.124 19.629C16.1584 19.3792 16.2398 19.1864 16.2125 18.947C16.2109 18.9318 16.0905 18.9447 16.0874 18.9316C16.0536 18.7619 16.0969 18.5965 16.0569 18.4264C16.0538 18.4124 15.9375 18.4301 15.9285 18.4077C15.9093 18.3615 15.9136 18.3037 15.9497 18.2581C15.9671 18.2359 16.069 18.2682 16.0845 18.2458C16.121 18.1936 16.1281 18.1371 16.1078 18.0824C16.0988 18.0591 15.9786 18.0916 15.9764 18.0615C15.9585 17.8566 15.9298 17.6551 16.085 17.4513C16.0956 17.4374 16.3478 17.4299 16.2989 17.3988C16.2287 17.3951 16.1462 17.3936 16.0712 17.3912C16.0227 17.0924 16.1037 16.7991 16.1111 16.5006C16.1114 16.488 15.9735 16.507 15.9732 16.4826C15.9714 16.3415 15.928 16.2036 16.0641 16.0619C16.0774 16.0479 16.3252 16.0601 16.2871 16.0171C16.2801 16.0096 16.246 15.9453 16.1916 15.9278C16.1834 15.9254 16.0676 15.9347 16.0637 15.9142C16.0431 15.7947 16.0663 15.6704 16.1356 15.553C16.1471 15.534 16.2728 15.5569 16.2821 15.5434C16.3473 15.4478 16.2497 15.3405 16.3632 15.2502C16.4399 15.1897 16.6595 15.217 16.8756 15.1883C16.9061 15.1842 16.9111 15.1459 17.0371 15.1464C17.3539 15.1476 17.7001 15.173 18.0378 15.172C18.094 15.1719 18.0615 15.1403 18.1242 15.1415C18.1242 15.1415 18.1242 15.1415 18.1242 15.1415C18.1427 15.1419 18.1694 15.1451 18.2091 15.1528C18.2207 15.1552 18.2771 15.1935 18.3361 15.2039C18.3769 15.2111 18.5055 15.2021 18.5574 15.2161C18.6092 15.2302 18.5011 15.2424 18.5616 15.2652C18.6227 15.288 18.7686 15.2814 18.7826 15.3248ZM16.7598 27.1036C16.8311 27.0709 16.57 27.0607 16.6327 27.0988C16.6361 27.1007 16.7563 27.1053 16.7598 27.1036ZM16.7877 31.2317C16.8745 31.1888 16.747 31.1558 16.6801 31.1859C16.6135 31.2161 16.7615 31.2448 16.7877 31.2317ZM16.8469 31.6953C16.9133 31.6445 16.6445 31.631 16.6991 31.6879C16.7022 31.6912 16.8431 31.6983 16.8469 31.6953ZM16.9361 15.3422C16.942 15.3418 16.948 15.3144 16.9421 15.3136C16.8006 15.2961 16.7891 15.3511 16.9361 15.3422ZM16.9067 32.1555C16.9418 32.1399 16.9022 32.0922 16.8585 32.1116C16.8234 32.1272 16.8632 32.1749 16.9067 32.1555ZM17.069 25.3301C17.0734 25.3296 17.0776 25.3099 17.0532 25.3099C16.9749 25.3097 16.9966 25.3376 17.069 25.3301ZM16.8987 32.9353C16.9088 32.8202 17.1121 32.7544 17.0855 32.8794C17.0808 32.902 17.0232 32.8291 17.0044 32.8577C16.9707 32.91 17.0941 32.9475 17.0261 33.0002C17.0139 33.0098 16.8979 32.9419 16.8985 32.9351C16.8986 32.9352 16.8987 32.9352 16.8987 32.9353ZM17.0732 27.0901C17.0767 27.0895 17.0805 27.0622 17.0771 27.0615C16.9943 27.045 16.9869 27.1 17.0732 27.0901ZM17.2788 24.1801C17.2875 24.1788 17.2973 24.1155 17.2894 24.1132C17.1303 24.077 17.111 24.205 17.2788 24.1801ZM17.2069 28.9366C17.28 28.968 17.2871 29.0038 17.1939 29.0258C17.1997 28.9962 17.2014 28.9664 17.2069 28.9366Z" fill="#D3A373"/>
<path d="M17.6148 17.517C17.6795 17.6489 17.7822 17.8838 17.8733 18.0998C17.966 18.3199 18.049 18.5251 18.067 18.5823C18.0794 18.6215 18.1085 18.7083 18.134 18.7758C18.2807 19.1647 18.4198 19.8112 18.4498 20.2292C18.4962 20.8752 18.44 21.4025 18.2468 22.1224C18.0396 22.8938 17.9377 23.6825 17.9545 24.3771C17.9575 24.503 17.9848 24.7313 18.02 24.9571C18.0553 25.1834 18.0978 25.4018 18.1298 25.5067C18.1538 25.5854 18.1816 25.6771 18.1893 25.7131C18.1921 25.726 18.202 25.7563 18.2166 25.7974C18.2307 25.8372 18.2487 25.8839 18.2655 25.9289C18.2995 26.0198 18.3406 26.1334 18.356 26.1804C18.3864 26.2732 18.4481 26.3924 18.7247 26.9003C18.8396 27.1113 18.8928 27.2094 18.9587 27.2994C19.0248 27.3895 19.1034 27.4722 19.271 27.6514C19.8834 28.3065 20.5327 28.6764 21.2237 28.7708C21.3841 28.7927 21.4929 28.8034 21.5952 28.8029C21.6973 28.8023 21.7955 28.7906 21.9351 28.766C22.3865 28.6863 22.8027 28.5379 23.2072 28.3074C23.336 28.234 23.5238 28.1001 23.7038 27.9572C23.8838 27.8143 24.0531 27.6658 24.1461 27.5635C24.6074 27.0561 24.9206 26.5161 25.0163 25.86C25.0314 25.7565 25.0496 25.6636 25.067 25.5938C25.0756 25.5591 25.0847 25.5281 25.0934 25.5049C25.0977 25.4935 25.1028 25.4828 25.1078 25.4735C25.1121 25.4657 25.1196 25.4526 25.1318 25.4436L25.1365 25.4401C25.1488 25.431 25.1634 25.4276 25.1721 25.4258C25.1825 25.4237 25.1941 25.4219 25.2063 25.4211C25.2311 25.4196 25.2625 25.4204 25.2983 25.4222C25.3702 25.4258 25.4641 25.4354 25.5677 25.4509C26.226 25.55 26.8676 25.4494 27.4843 25.1563C27.6092 25.0969 27.8012 24.9788 27.99 24.848C28.1787 24.7174 28.3608 24.5768 28.4684 24.4749C28.8063 24.1547 29.0691 23.7993 29.2762 23.3904C29.3403 23.264 29.38 23.1733 29.4101 23.0759C29.4403 22.978 29.4616 22.871 29.4872 22.7111C29.5974 22.0222 29.4324 21.2933 28.983 20.517C28.8601 20.3047 28.8038 20.2054 28.7367 20.1161C28.6697 20.027 28.5911 19.9474 28.4227 19.7764C28.0172 19.3648 27.9205 19.2707 27.8406 19.2147C27.8002 19.1864 27.7033 19.1141 27.6262 19.0552C27.5879 19.0259 27.5473 18.9952 27.5132 18.97C27.4782 18.9442 27.4524 18.9266 27.441 18.9202C27.4088 18.9024 27.3297 18.8486 27.2615 18.8029C27.1703 18.7417 26.9737 18.6377 26.7674 18.5384C26.5616 18.4393 26.351 18.347 26.2313 18.3074C25.5714 18.0899 24.787 17.9587 23.9887 17.9332C23.2435 17.9094 22.7216 17.8101 22.1167 17.5783C21.7252 17.4282 21.1468 17.1076 20.8173 16.8545C20.7602 16.8106 20.6868 16.7576 20.6529 16.7345C20.6037 16.7009 20.4313 16.5619 20.2474 16.4091C20.0672 16.2594 19.8729 16.0924 19.7654 15.9921L17.5711 15.2306L17.6148 17.517Z" fill="#D3A373" stroke="#D3A373" stroke-width="0.1"/>
<path d="M18.1635 13.6592C18.2692 13.6599 18.3776 13.7484 18.4522 13.8388C18.4756 13.8669 18.4355 13.9349 18.4506 13.9575C18.48 14.0017 18.5291 13.9801 18.5562 14.0295C18.5651 14.0462 18.5092 14.1562 18.5194 14.171C18.5759 14.2511 18.6563 14.2487 18.723 14.3023C19.0517 14.5659 19.4021 14.7458 19.7606 14.9378C19.8787 15.0012 19.9955 15.1566 20.1385 15.1611C20.1552 15.1615 20.179 15.0629 20.1845 15.0561C20.2703 14.9528 20.1895 15.1395 20.2099 15.1758C20.291 15.3197 20.4171 15.3752 20.5408 15.3804C20.5936 15.3823 20.6099 15.1787 20.6218 15.3009C20.6227 15.3092 20.5766 15.404 20.5859 15.4194C20.6072 15.4541 20.6693 15.457 20.6894 15.4733C20.7281 15.5051 20.7358 15.5068 20.7771 15.5232C20.8332 15.5467 20.8843 15.6202 20.953 15.6204C20.9678 15.6202 20.9849 15.5137 21.0115 15.5044C21.0381 15.4952 21.0902 15.5242 21.1007 15.5546C21.1112 15.585 21.0765 15.6603 21.0736 15.6795C21.0487 15.8406 21.1844 15.6545 21.1943 15.6525C21.3738 15.62 21.4613 15.7859 21.6019 15.8368C21.7086 15.8754 21.8357 15.8791 21.9352 15.9218C22.0536 15.9731 22.1383 16.0623 22.2587 16.0964C22.2714 16.1001 22.295 15.9836 22.3105 15.988C22.4755 16.0348 22.6304 16.1068 22.7652 16.2392C22.7787 16.2526 22.7252 16.3405 22.7367 16.3595C22.8079 16.4742 22.9004 16.7144 23.0992 16.3262C23.1602 16.3667 23.2352 16.4132 23.2666 16.5166C23.287 16.5832 23.2149 16.6711 23.2769 16.6448C23.2909 16.639 23.3075 16.5453 23.3261 16.5434C23.4043 16.5355 23.4679 16.5909 23.5498 16.5698C23.5666 16.5653 23.5899 16.4854 23.5985 16.4726C23.6699 16.3701 23.6584 16.5792 23.6655 16.597C23.7193 16.7317 23.7981 16.7149 23.88 16.7477C23.899 16.7553 23.912 16.6431 23.9315 16.6468C24.0324 16.6673 24.1285 16.7132 24.2067 16.7931C24.224 16.8112 24.1749 16.8913 24.1817 16.9043C24.2119 16.9605 24.278 16.7999 24.308 16.8509C24.3144 16.8614 24.284 16.9338 24.2828 16.9425C24.2643 17.0796 24.3486 16.9064 24.3565 16.9049C24.4578 16.8808 24.4462 17.0878 24.5354 17.0898C24.5461 17.0899 24.5563 16.9894 24.5845 16.9954C24.7722 17.0351 24.9525 17.1302 25.1051 17.2661C25.1289 17.2871 25.086 17.3477 25.0849 17.3566C25.0685 17.4969 25.1467 17.329 25.1579 17.3257C25.245 17.3043 25.2616 17.4727 25.3803 17.2847C25.6563 17.4639 25.9931 17.4616 26.2307 17.7447C26.2338 17.7481 26.1992 17.8266 26.2055 17.833C26.2812 17.9104 26.3068 17.7785 26.4194 17.6476C26.4477 17.6149 26.4306 17.8156 26.4301 17.8304C26.428 17.8853 26.3717 17.9989 26.3734 18.0103C26.389 18.0999 26.5171 17.7044 26.5727 17.7246C26.5742 17.7259 26.5421 17.7954 26.5443 17.8043C26.5511 17.832 26.5753 17.8085 26.581 17.8384C26.5938 17.9074 26.5405 18.1006 26.628 18.0079C26.6392 17.9959 26.7053 17.7718 26.7513 17.8003C26.7696 17.8118 26.8584 17.8399 26.8781 17.8629C26.8977 17.886 26.8568 17.9502 26.8575 17.9539C26.8917 18.0703 26.8535 18.0998 26.8397 18.2485C26.8262 18.3962 26.9286 18.0677 26.9545 18.0362C26.9805 18.0049 27.0029 18.0982 27.0058 18.1287C27.0087 18.1593 26.9786 18.1983 26.9841 18.2169C27.0212 18.3386 27.07 18.0673 27.1108 18.0243C27.2068 17.9229 27.1674 18.1767 27.2095 18.2172C27.2209 18.2282 27.2284 18.1703 27.2422 18.1695C27.2965 18.1671 27.3 18.2508 27.3774 18.2025C27.39 18.1946 27.4822 18.0693 27.4751 18.1828C27.474 18.1992 27.4426 18.2535 27.4584 18.2737C27.4821 18.304 27.5326 18.3357 27.5719 18.3278C27.6009 18.322 27.606 18.2169 27.6262 18.2573C27.6351 18.2752 27.591 18.3222 27.6094 18.3512C27.6277 18.3802 27.6931 18.4002 27.7183 18.4068C27.7435 18.4134 27.7547 18.3371 27.7583 18.333C27.7798 18.3095 27.8385 18.2918 27.8426 18.2934C28.0544 18.3601 28.207 18.5463 28.4242 18.5792C28.4412 18.582 28.4555 18.5057 28.4583 18.5053C28.5234 18.4946 28.4142 18.6718 28.4304 18.7494C28.4752 18.6008 28.4887 18.6353 28.5328 18.6328C28.5541 18.6315 28.5634 18.5714 28.5671 18.5662C28.6241 18.4902 28.6052 18.6079 28.6024 18.6322C28.5921 18.7219 28.6457 18.6306 28.6391 18.6905C28.6326 18.7499 28.576 18.8216 28.6134 18.8333C28.6416 18.785 28.6607 18.6397 28.6963 18.6277C28.8306 18.5827 28.9918 18.7591 29.0735 18.7995C29.1548 18.8403 29.1855 18.8407 29.2288 18.8763C29.3072 18.9405 29.3076 18.8321 29.3782 18.8079C29.4489 18.7839 29.3407 19.0108 29.3313 19.0644C29.3217 19.118 29.3483 19.0686 29.3485 19.0999C29.3488 19.131 29.3157 19.1584 29.3352 19.1766C29.3547 19.1947 29.4486 19.126 29.4748 19.0763C29.5303 18.9707 29.5422 18.8435 29.5888 18.9064C29.5914 18.9101 29.559 18.9675 29.5702 18.9784C29.6603 19.0632 29.7697 19.1046 29.8619 19.1825C29.8746 19.1933 29.8386 19.2556 29.8457 19.2626C29.9198 19.3355 29.9267 19.2121 30.0178 19.1049C29.9502 19.2666 29.9423 19.377 30.0095 19.4004C30.0499 19.4147 30.0675 19.3406 30.111 19.2992C30.124 19.2867 30.1358 19.3456 30.1525 19.3138C30.2072 19.2102 30.2224 19.078 30.2747 19.1516C30.277 19.155 30.2468 19.2113 30.2561 19.2187C30.3158 19.2662 30.3629 19.1553 30.4406 19.1682C30.5016 19.1783 30.58 19.2835 30.6417 19.3176C30.5792 19.4953 30.6552 19.4755 30.7221 19.3625C30.7628 19.3825 30.811 19.392 30.8463 19.4232C30.8584 19.4339 30.8317 19.4813 30.8316 19.4874C30.8295 19.5828 30.8883 19.4719 30.899 19.4706C31.0135 19.4613 31.0644 19.5773 31.1884 19.5256C31.1928 19.5237 31.239 19.4071 31.2345 19.5028C31.2341 19.5093 31.1843 19.5521 31.2275 19.572C31.2706 19.5921 31.3332 19.6843 31.4137 19.6519C31.4332 19.644 31.5034 19.5633 31.5086 19.6477C31.5092 19.6591 31.4933 19.6908 31.4929 19.7113C31.4916 19.7767 31.542 19.6635 31.5302 19.7704C31.5185 19.8774 31.5398 19.9664 31.6258 19.9197C31.6285 19.9183 31.6747 19.8319 31.6938 19.8402C31.7244 19.8535 31.7626 19.8877 31.7956 19.8984C31.8114 19.9034 31.8206 19.8438 31.8237 19.8437C31.94 19.8492 31.9979 19.9253 32.1038 19.9853C32.1233 19.9963 32.2083 19.9427 32.2283 20.0153C32.2505 20.0945 32.1137 20.3455 32.2375 20.315C32.2875 20.3024 32.4536 19.9871 32.468 20.1844C32.6251 20.1908 32.7276 20.3215 32.891 20.3109C32.8984 20.3105 32.9492 20.2284 32.9639 20.2349C32.9856 20.2447 32.9837 20.2904 32.9988 20.2986C33.0616 20.3341 33.1351 20.3201 33.1979 20.348C33.2217 20.3584 33.1987 20.3974 33.2273 20.4098C33.2558 20.422 33.2942 20.3738 33.3247 20.414C33.3478 20.4445 33.3396 20.5661 33.3751 20.592C33.4142 20.4832 33.4408 20.4947 33.4992 20.4826C33.5104 20.4803 33.5134 20.439 33.5194 20.436C33.544 20.4228 33.5499 20.4598 33.5742 20.4446C33.58 20.441 33.5929 20.4041 33.5984 20.3991C33.6458 20.3551 33.6648 20.4546 33.668 20.4717C33.6806 20.537 33.7115 20.4945 33.7282 20.5242C33.7449 20.5537 33.6999 20.568 33.7235 20.5905C33.7724 20.6369 33.8491 20.6562 33.9076 20.6778C33.931 20.6862 33.9312 20.6332 33.935 20.6333C33.9877 20.6381 34.0197 20.7049 34.0788 20.6205C34.0295 20.874 34.1161 20.6072 34.1689 20.6797C34.1731 20.6855 34.1412 20.8011 34.1144 20.8108C34.0876 20.8205 34.0678 20.7742 34.0296 20.7906C34.0206 20.7944 33.9439 20.8889 33.9362 20.8938C33.876 20.9315 33.9292 20.7571 33.9302 20.7468C33.9399 20.6358 33.8514 20.7364 33.8357 20.7405C33.7644 20.7586 33.7232 20.7177 33.665 20.7286C33.627 20.7356 33.584 20.8506 33.56 20.8392C33.4799 20.8016 33.5072 20.6276 33.3792 20.7452C33.3518 20.7703 33.3242 20.9053 33.2984 20.7844C33.2967 20.7769 33.2838 20.6688 33.2374 20.7201C33.2315 20.7266 33.2185 20.7647 33.2131 20.7666C33.177 20.7784 33.1682 20.742 33.1316 20.7468C33.095 20.7517 33.0495 20.7621 33.0179 20.7379C32.9989 20.7235 32.9959 20.6423 32.9916 20.6212C32.98 20.5606 32.9196 20.635 32.9229 20.5668C32.9262 20.498 32.9945 20.4145 32.9608 20.3579C32.9239 20.4595 32.8838 20.5632 32.8456 20.6652C32.7414 20.6293 32.6493 20.5635 32.5421 20.5351C32.5288 20.5317 32.5228 20.5924 32.508 20.5903C32.4455 20.5812 32.4076 20.5247 32.3406 20.5219C32.2886 20.5201 32.2153 20.5653 32.1601 20.5659C32.172 20.4331 32.0838 20.4522 32.034 20.4244C32.0166 20.4147 32.0293 20.3816 32.0197 20.3665C31.9832 20.3102 31.9687 20.4287 31.9489 20.442C31.8637 20.499 31.9454 20.2447 31.8736 20.2284C31.8699 20.2274 31.778 20.3491 31.7688 20.3558C31.7102 20.3991 31.7786 20.3064 31.7572 20.2886C31.7183 20.2561 31.6982 20.2132 31.6313 20.237C31.6118 20.244 31.545 20.319 31.5378 20.2428C31.5369 20.2328 31.5548 20.1876 31.5526 20.1839C31.5104 20.1208 31.4593 20.2651 31.4094 20.3043C31.3594 20.3437 31.3429 20.2277 31.3426 20.1952C31.3414 20.1115 31.3744 20.1695 31.3784 20.1626C31.4257 20.0802 31.3835 20.0836 31.3578 20.0671C31.403 19.9221 31.3607 19.9177 31.3309 20.0506C31.3277 20.0652 31.3544 20.0588 31.3578 20.0671C31.2846 20.2002 31.2345 20.2057 31.2321 20.0576C31.231 19.9881 31.2772 19.9222 31.1999 19.9266C31.1649 19.9287 31.1423 20.033 31.1055 20.0519C31.0214 20.0951 30.9725 19.9753 30.903 19.9697C30.8777 19.9678 30.8813 20.031 30.8634 20.0317C30.8156 20.0338 30.7927 19.9799 30.7426 19.9883C30.738 19.9891 30.7271 20.0512 30.7136 20.0479C30.6104 20.0241 30.5359 19.959 30.4312 19.9254C30.3806 19.9092 30.2782 19.915 30.2279 19.8921C30.1405 19.8531 30.0593 19.728 29.974 19.7256C29.9185 19.7239 29.9081 19.7901 29.8716 19.8262C29.801 19.8966 29.7777 19.725 29.7757 19.6985C29.7757 19.6976 29.8245 19.6962 29.8123 19.6565C29.822 19.5846 29.7763 19.6983 29.7757 19.6985C29.7743 19.6815 29.692 19.6398 29.6705 19.6466C29.6588 19.6504 29.6433 19.7125 29.6376 19.7133C29.5021 19.7317 29.3794 19.7126 29.2707 19.6477C29.269 19.6458 29.2959 19.5775 29.2917 19.5739C29.2338 19.5219 29.1607 19.5934 29.0865 19.6273C29.0124 19.6611 28.9731 19.6311 28.9813 19.4995C28.9333 19.5017 28.8906 19.4292 28.8667 19.3853C28.8428 19.3414 28.7901 19.479 28.7861 19.4808C28.659 19.5397 28.6303 19.4431 28.5343 19.3998C28.4888 19.379 28.387 19.3708 28.3299 19.3708C28.2847 19.3711 28.2717 19.33 28.2266 19.3401C28.2205 19.3415 28.2037 19.4072 28.2013 19.4092C28.1328 19.4734 28.2069 19.3225 28.2079 19.2918C28.2114 19.1803 28.2108 19.1194 28.1406 19.1509C28.1245 19.158 28.0101 19.3749 27.9828 19.3818C27.9475 19.39 27.9868 19.3113 27.9491 19.322C27.9459 19.3228 27.9291 19.3737 27.9108 19.3658C27.8256 19.3301 27.7395 19.2716 27.6459 19.2494C27.6332 19.2462 27.6212 19.3328 27.6023 19.3296C27.5138 19.3144 27.4213 19.2844 27.3517 19.2211C27.3347 19.2052 27.3675 19.1507 27.369 19.1321C27.3778 19.0192 27.287 19.1599 27.2796 19.1611C27.1024 19.1902 27.0342 19.016 26.8565 19.0369C26.8468 19.0382 26.7241 19.1877 26.7447 19.0347C26.746 19.0246 26.7683 18.8677 26.7082 18.9616C26.7045 18.9675 26.6961 19.0492 26.6676 19.0323C26.6392 19.0153 26.5714 19.0521 26.5576 18.9549C26.5532 18.9243 26.5726 18.7649 26.4913 18.8722C26.4859 18.8795 26.3304 19.1325 26.3724 18.9388C26.3793 18.9069 26.4512 18.7095 26.3682 18.7968C26.3522 18.8138 26.3537 18.8631 26.3199 18.8837C26.268 18.9155 26.2371 18.8474 26.1607 18.9233C26.1474 18.9366 26.0665 19.0633 26.0748 18.9519C26.0761 18.9344 26.1072 18.8696 26.0954 18.8579C26.0395 18.8016 25.9523 18.8258 25.899 18.7583C25.8801 18.7345 25.9304 18.6282 25.915 18.591C25.8995 18.5537 25.8579 18.5093 25.8138 18.5517C25.7697 18.5942 25.7383 18.7796 25.6933 18.782C25.4971 18.7929 25.3596 18.6381 25.1906 18.5706C25.1655 18.5607 25.1647 18.632 25.1261 18.6222C24.9838 18.5856 24.719 18.5784 24.6457 18.4005C24.5871 18.2574 24.7396 18.2076 24.6811 18.1385C24.6529 18.1051 24.539 18.3117 24.5279 18.3161C24.4189 18.361 24.3933 18.2462 24.3066 18.2534C24.2886 18.2549 24.2734 18.3492 24.2584 18.3495C24.2071 18.3517 24.1726 18.2974 24.1261 18.2919C24.1052 18.2896 24.0852 18.3597 24.0689 18.3492C24.0295 18.3246 24.0011 18.2844 23.9812 18.2068C23.9794 18.1997 24.035 18.1211 24.0041 18.1082C23.9539 18.0878 23.9118 18.0037 23.8293 18.0526C23.8047 18.0674 23.7489 18.2278 23.7489 18.1056C23.7488 18.0801 23.8253 17.8899 23.7237 18.0436C23.7068 18.0689 23.5546 18.2732 23.5681 18.1166C23.5716 18.0754 23.6017 17.9087 23.5718 17.9273C23.5676 17.9304 23.5492 18.0211 23.5287 18.0243C23.4567 18.0344 23.3947 18.0057 23.3213 18.0144C23.3017 18.0169 23.2958 18.1155 23.2675 18.1164C23.1895 18.1192 23.1099 18.0708 23.0513 18.022C23.0298 18.0038 23.0734 17.9325 23.0744 17.9237C23.0913 17.7796 23.0112 17.9571 22.9977 17.965C22.9148 18.0111 22.8979 17.9114 22.8339 17.9177C22.8163 17.9193 22.7971 18.0104 22.7914 18.0174C22.733 18.0848 22.8111 17.9337 22.7968 17.9104C22.7569 17.8444 22.6913 17.8327 22.63 17.8271C22.6075 17.8253 22.5958 17.9351 22.576 17.9323C22.4577 17.9177 22.3444 17.8745 22.2548 17.785C22.238 17.768 22.2786 17.6912 22.2806 17.6715C22.2953 17.5339 22.1917 17.6968 22.1759 17.7108C22.1042 17.7743 22.1112 17.6976 22.0665 17.6992C21.8479 17.709 21.6225 17.5914 21.4483 17.5068C21.221 17.3977 21.0623 17.2612 20.826 17.214C20.811 17.2109 20.7865 17.3295 20.7731 17.3284C20.6012 17.3087 20.4569 17.2169 20.2827 17.203C20.2685 17.2016 20.2498 17.3177 20.2257 17.3194C20.1759 17.3237 20.1221 17.3018 20.0898 17.2535C20.074 17.2301 20.1358 17.1431 20.1193 17.1214C20.0808 17.0707 20.0291 17.0466 19.9708 17.0493C19.9459 17.0507 19.9401 17.175 19.9108 17.168C19.7101 17.1223 19.5095 17.088 19.363 16.8779C19.353 16.8636 19.423 16.6211 19.3784 16.6582C19.3535 16.7239 19.3268 16.802 19.3015 16.8727C19.0022 16.8274 18.7478 16.6607 18.4658 16.5622C18.4539 16.5582 18.4299 16.6953 18.4066 16.6881C18.2716 16.6466 18.1271 16.6458 18.0338 16.4729C18.0245 16.4559 18.1119 16.2237 18.0594 16.2469C18.05 16.2512 17.9784 16.2641 17.9451 16.3105C17.9403 16.3175 17.9138 16.4307 17.893 16.4281C17.773 16.4111 17.6618 16.351 17.5711 16.2491C17.5566 16.2324 17.6169 16.1197 17.6069 16.1067C17.5358 16.0154 17.4037 16.0755 17.3524 15.9398C17.3183 15.8483 17.4114 15.6476 17.4502 15.4331C17.4557 15.4028 17.4208 15.3863 17.4598 15.2665C17.5578 14.9652 17.6879 14.6434 17.7902 14.3215C17.8073 14.268 17.7673 14.2893 17.7876 14.23C17.7876 14.23 17.7876 14.23 17.7876 14.23C17.7936 14.2125 17.8049 14.188 17.8243 14.1526C17.8301 14.1422 17.8839 14.1003 17.9118 14.0473C17.9311 14.0107 17.9619 13.8854 17.9912 13.8404C18.0204 13.7954 17.999 13.902 18.0392 13.8514C18.0796 13.8001 18.1179 13.6593 18.1635 13.6592ZM28.7591 19.1877C28.7498 19.1098 28.6602 19.3553 28.7157 19.3073C28.7185 19.3047 28.7596 19.1915 28.7591 19.1877ZM32.6979 20.4238C32.6836 20.3281 32.6132 20.4393 32.6214 20.5123C32.6298 20.5848 32.7024 20.4527 32.6979 20.4238ZM33.1574 20.5092C33.1294 20.4305 33.0343 20.6822 33.1052 20.6477C33.1093 20.6458 33.1591 20.5138 33.1574 20.5092ZM17.6153 15.4225C17.6168 15.4168 17.5924 15.4027 17.5899 15.4081C17.53 15.5374 17.5788 15.5652 17.6153 15.4225ZM33.6138 20.593C33.6097 20.5548 33.5522 20.578 33.5573 20.6255C33.5614 20.6637 33.619 20.6403 33.6138 20.593ZM27.1652 18.3509C27.1661 18.3466 27.1486 18.3366 27.1411 18.3597C27.1169 18.4343 27.1502 18.4221 27.1652 18.3509ZM34.3538 20.8391C34.2474 20.7944 34.2469 20.5806 34.3577 20.6443C34.3778 20.6556 34.2908 20.6882 34.3123 20.7148C34.3517 20.7629 34.4253 20.6569 34.4546 20.7377C34.4599 20.7523 34.3598 20.842 34.3536 20.8393C34.3536 20.8393 34.3537 20.8392 34.3538 20.8391ZM28.8421 18.8852C28.8426 18.8817 28.8178 18.8697 28.816 18.8728C28.7751 18.9465 28.8252 18.9704 28.8421 18.8852ZM26.1345 17.7994C26.1359 17.7908 26.0786 17.762 26.074 17.7689C25.9908 17.9092 26.1069 17.9668 26.1345 17.7994ZM30.6411 19.3227C30.6932 19.2627 30.7296 19.2669 30.722 19.3623C30.6956 19.3478 30.6677 19.3371 30.6411 19.3227Z" fill="#D3A373"/>
<path d="M19.8936 15.4416C20.0389 15.4203 20.294 15.3944 20.5275 15.3738C20.7654 15.3528 20.9862 15.3365 21.0461 15.3368C21.0872 15.3371 21.1788 15.3359 21.2508 15.3323C21.666 15.3116 22.324 15.3769 22.7312 15.4761C23.3604 15.6295 23.8453 15.8443 24.4715 16.2485C25.1426 16.6817 25.8623 17.0199 26.5288 17.2164C26.6496 17.252 26.8753 17.2959 27.1011 17.3314C27.3273 17.3671 27.5481 17.3934 27.6579 17.395C27.7401 17.3962 27.8359 17.3978 27.8726 17.4015C27.8857 17.4028 27.9175 17.4026 27.9612 17.4013C28.0034 17.4 28.0534 17.3972 28.1014 17.3949C28.1983 17.3904 28.3191 17.386 28.3685 17.3857C28.4661 17.3852 28.5985 17.3628 29.1666 17.2549C29.4027 17.21 29.5124 17.1893 29.6182 17.1541C29.7242 17.1188 29.8269 17.0693 30.0488 16.9645C30.8598 16.5818 31.4106 16.0768 31.7119 15.4477C31.7818 15.3017 31.8252 15.2014 31.856 15.1038C31.8867 15.0065 31.9056 14.9094 31.9248 14.769C31.9871 14.3148 31.973 13.8731 31.8773 13.4175C31.8468 13.2725 31.7768 13.0527 31.6958 12.8377C31.6148 12.6226 31.5251 12.416 31.4562 12.2961C31.1143 11.7017 30.6959 11.2384 30.1005 10.9465C30.0066 10.9005 29.9238 10.8548 29.8626 10.8169C29.8322 10.798 29.8055 10.7799 29.7861 10.7646C29.7765 10.757 29.7679 10.7489 29.7606 10.7412C29.7544 10.7348 29.7443 10.7236 29.7394 10.7092L29.7375 10.7037C29.7326 10.6892 29.7339 10.6743 29.7349 10.6654C29.736 10.6549 29.7378 10.6433 29.7408 10.6314C29.7469 10.6074 29.7573 10.5777 29.77 10.5442C29.7954 10.4769 29.8332 10.3904 29.8798 10.2965C30.1754 9.70009 30.2759 9.05847 30.1854 8.3816C30.1671 8.24452 30.1133 8.02566 30.0466 7.80582C29.9799 7.58622 29.9018 7.36985 29.8377 7.2363C29.6362 6.81665 29.3782 6.45776 29.0523 6.13549C28.9515 6.03585 28.8773 5.9703 28.7938 5.91183C28.7099 5.8531 28.6145 5.80012 28.47 5.72683C27.8479 5.41118 27.1034 5.34536 26.2269 5.53573C25.9871 5.5878 25.8754 5.61111 25.7698 5.64765C25.6645 5.68415 25.5647 5.73463 25.3503 5.84273C24.8345 6.10283 24.7154 6.16612 24.6376 6.22508C24.5983 6.25493 24.4998 6.32501 24.4201 6.38041C24.3805 6.40797 24.3388 6.43723 24.3045 6.46198C24.2692 6.48741 24.2445 6.50654 24.235 6.51549C24.2082 6.54067 24.1328 6.59951 24.0684 6.65047C23.9823 6.71857 23.8231 6.87398 23.6654 7.04001C23.5081 7.20564 23.3558 7.37791 23.2816 7.47979C22.8726 8.04149 22.5078 8.74821 22.2393 9.50045C21.9888 10.2027 21.7346 10.6692 21.3288 11.1742C21.0662 11.501 20.584 11.9536 20.2423 12.1899C20.1831 12.2309 20.1102 12.2845 20.0778 12.3097C20.0307 12.3463 19.8457 12.4679 19.644 12.5963C19.4464 12.7221 19.2279 12.8559 19.0995 12.9277L17.7034 14.7839L19.8936 15.4416Z" fill="#D3A373" stroke="#D3A373" stroke-width="0.1"/>
<path d="M16.3881 13.7392C16.4211 13.6389 16.5386 13.5627 16.6474 13.5193C16.6814 13.5057 16.7338 13.5646 16.76 13.5572C16.8111 13.5427 16.8055 13.4894 16.8608 13.4786C16.8794 13.4752 16.9671 13.5622 16.9843 13.557C17.0779 13.5276 17.1001 13.4504 17.1715 13.4033C17.5231 13.1709 17.8015 12.8923 18.094 12.6098C18.1905 12.5167 18.3741 12.453 18.4221 12.3183C18.4277 12.3025 18.341 12.2497 18.3363 12.2423C18.2642 12.1291 18.4172 12.2631 18.458 12.2548C18.6198 12.2216 18.7112 12.1186 18.754 12.0023C18.772 11.9526 18.5831 11.8749 18.7031 11.9009C18.7112 11.9026 18.7874 11.9755 18.8049 11.9713C18.8445 11.9616 18.8662 11.9034 18.8879 11.8892C18.93 11.8621 18.934 11.8554 18.9623 11.8211C19.0017 11.7748 19.0874 11.7487 19.1086 11.6833C19.1129 11.6691 19.0168 11.6203 19.016 11.5921C19.0154 11.5639 19.059 11.5232 19.0911 11.5225C19.1232 11.5218 19.1843 11.578 19.2017 11.5866C19.3475 11.6595 19.2118 11.4734 19.2129 11.4634C19.2369 11.2825 19.4216 11.25 19.5131 11.1317C19.5825 11.0419 19.6248 10.9221 19.6959 10.8404C19.781 10.7433 19.8918 10.69 19.9611 10.5858C19.9686 10.5748 19.8648 10.5167 19.8738 10.5032C19.9687 10.3605 20.0847 10.235 20.252 10.1472C20.2689 10.1385 20.3362 10.2163 20.3578 10.2111C20.4888 10.1784 20.7458 10.1638 20.437 9.85578C20.4942 9.81016 20.5614 9.75298 20.6695 9.75467C20.7391 9.75566 20.8007 9.85118 20.7947 9.78404C20.7934 9.76898 20.7093 9.72454 20.7132 9.70624C20.7296 9.62931 20.8018 9.58578 20.8068 9.50129C20.8076 9.48399 20.7386 9.43736 20.7291 9.42521C20.6534 9.32591 20.8489 9.40078 20.868 9.39955C21.0127 9.3895 21.0208 9.30932 21.0771 9.24132C21.0902 9.22556 20.9873 9.17894 20.9968 9.16145C21.0472 9.07168 21.1203 8.99427 21.2203 8.94422C21.2427 8.93323 21.304 9.00449 21.3185 9.00205C21.3813 8.99046 21.2485 8.87838 21.3062 8.8654C21.3182 8.86251 21.3778 8.91368 21.3858 8.91747C21.5106 8.97695 21.3715 8.84375 21.3725 8.83578C21.3805 8.73198 21.5741 8.80635 21.6033 8.72205C21.6066 8.71188 21.5141 8.67138 21.5284 8.64643C21.6236 8.47984 21.7693 8.33727 21.9454 8.23354C21.9727 8.21733 22.0172 8.27668 22.0254 8.2805C22.1539 8.33894 22.0179 8.21316 22.0183 8.20148C22.0245 8.11205 22.19 8.14771 22.0472 7.9772C22.3023 7.76919 22.4031 7.4479 22.7453 7.30826C22.7495 7.30634 22.8137 7.36328 22.8217 7.35922C22.9185 7.31084 22.8008 7.2461 22.7106 7.09891C22.6881 7.06202 22.874 7.13961 22.8879 7.1446C22.9395 7.1634 23.0305 7.25176 23.0418 7.25362C23.1319 7.26618 22.7945 7.02322 22.8308 6.97656C22.8325 6.97551 22.8888 7.02727 22.8979 7.02788C22.9264 7.0299 22.9115 6.99968 22.9416 7.00339C23.0113 7.01233 23.1789 7.12219 23.1174 7.01047C23.1094 6.99614 22.9163 6.86468 22.9575 6.82961C22.974 6.81572 23.0279 6.73977 23.0559 6.72809C23.0838 6.71641 23.1324 6.77504 23.1362 6.7755C23.2575 6.77848 23.2739 6.82396 23.4112 6.88256C23.5477 6.94062 23.2662 6.74261 23.2442 6.70827C23.2223 6.67399 23.318 6.68122 23.348 6.68778C23.378 6.69439 23.4059 6.73495 23.4253 6.73541C23.5525 6.73734 23.3091 6.60781 23.2807 6.55589C23.2135 6.43347 23.4431 6.54862 23.4945 6.52084C23.5085 6.51336 23.4557 6.48853 23.4591 6.47517C23.4735 6.42276 23.5542 6.44503 23.5319 6.35658C23.5282 6.34207 23.4371 6.21598 23.5431 6.2575C23.5583 6.26352 23.6004 6.31009 23.6245 6.30116C23.6605 6.2879 23.7062 6.24957 23.7107 6.20971C23.714 6.18028 23.6155 6.1433 23.6601 6.13645C23.68 6.13343 23.7111 6.18979 23.7444 6.18111C23.7776 6.17254 23.8167 6.11641 23.8307 6.09445C23.8447 6.0725 23.7754 6.03852 23.7726 6.03379C23.7568 6.00618 23.7579 5.94484 23.7607 5.94142C23.8891 5.76017 24.1129 5.67183 24.2107 5.47509C24.2186 5.45975 24.1503 5.42287 24.1508 5.42006C24.1605 5.35478 24.2958 5.51299 24.3747 5.52125C24.2469 5.43313 24.2838 5.43083 24.295 5.3881C24.3003 5.36744 24.2458 5.34021 24.242 5.33511C24.1871 5.25761 24.2934 5.31159 24.3157 5.3217C24.3979 5.35891 24.3274 5.27998 24.3824 5.3046C24.4369 5.32889 24.4879 5.40479 24.5105 5.37266C24.4732 5.33106 24.3406 5.26846 24.3401 5.23088C24.3384 5.08932 24.5556 4.98974 24.6191 4.92434C24.6828 4.85937 24.6926 4.83032 24.7397 4.79994C24.8248 4.74498 24.7217 4.71142 24.7203 4.6368C24.7191 4.56215 24.9019 4.73453 24.9502 4.75994C24.9982 4.78539 24.9593 4.74501 24.9891 4.75433C25.0189 4.76366 25.0349 4.8035 25.0581 4.79053C25.0813 4.77748 25.0447 4.66707 25.0053 4.62691C24.9217 4.54174 24.8043 4.4915 24.8784 4.46645C24.8827 4.46505 24.9275 4.51348 24.9414 4.50612C25.0495 4.44633 25.1225 4.3548 25.2249 4.29082C25.239 4.28206 25.2873 4.33541 25.2962 4.33078C25.3882 4.2825 25.2729 4.2382 25.1987 4.11866C25.3319 4.23251 25.4346 4.27376 25.4775 4.21695C25.5034 4.18289 25.4383 4.14347 25.4121 4.08942C25.4043 4.07318 25.4639 4.07994 25.4388 4.05432C25.3568 3.97055 25.2356 3.91567 25.3217 3.88835C25.3256 3.88726 25.37 3.9332 25.3798 3.92665C25.4433 3.88434 25.3522 3.80556 25.3882 3.73546C25.4165 3.68055 25.5406 3.63802 25.592 3.5898C25.742 3.70364 25.7464 3.62516 25.6593 3.52693C25.6908 3.4943 25.7145 3.45133 25.7551 3.42729C25.769 3.41898 25.806 3.45888 25.8118 3.46085C25.9019 3.49203 25.8143 3.40218 25.8163 3.39159C25.8426 3.27973 25.9686 3.26673 25.9573 3.13287C25.9568 3.12808 25.8599 3.04849 25.9496 3.08194C25.9557 3.08431 25.9813 3.14484 26.0134 3.10985C26.0457 3.07495 26.1526 3.04353 26.1464 2.95694C26.1449 2.93599 26.0894 2.84446 26.1714 2.86539C26.1824 2.86829 26.2078 2.89305 26.2272 2.8998C26.2891 2.92101 26.1967 2.83839 26.2949 2.88229C26.3931 2.9262 26.4843 2.93316 26.4662 2.83698C26.4657 2.83402 26.3976 2.76359 26.4114 2.74787C26.4333 2.72279 26.4776 2.69697 26.4978 2.66878C26.5075 2.65527 26.4536 2.62827 26.4544 2.62531C26.4952 2.51628 26.5853 2.48438 26.6749 2.40191C26.6913 2.38679 26.6663 2.2894 26.7415 2.29257C26.8237 2.29571 27.0208 2.50273 27.0297 2.37553C27.033 2.32402 26.7835 2.06948 26.9758 2.11607C27.03 1.96844 27.1858 1.91085 27.2257 1.75205C27.2275 1.74492 27.1649 1.67136 27.1756 1.65941C27.1916 1.64173 27.2345 1.65753 27.2469 1.64569C27.2999 1.59668 27.3091 1.52248 27.3548 1.47123C27.372 1.4517 27.4022 1.48553 27.4227 1.46215C27.443 1.43873 27.4089 1.38747 27.4565 1.37063C27.4926 1.35805 27.6058 1.40303 27.6414 1.37713C27.5497 1.30664 27.5688 1.28484 27.5752 1.22553C27.5763 1.2141 27.538 1.19867 27.5369 1.19204C27.5319 1.16456 27.5689 1.17029 27.5619 1.14252C27.5602 1.13581 27.5291 1.11231 27.526 1.10552C27.4986 1.04697 27.5992 1.05933 27.6164 1.06143C27.6824 1.0694 27.6514 1.02698 27.6848 1.0202C27.718 1.01339 27.7179 1.06058 27.7465 1.045C27.8056 1.01261 27.8474 0.945448 27.8859 0.896412C27.9011 0.876694 27.8507 0.860254 27.8519 0.856729C27.8726 0.807993 27.946 0.797926 27.8837 0.715889C28.1099 0.840312 27.8824 0.676233 27.9676 0.648142C27.9744 0.645996 28.0747 0.711701 28.0757 0.740188C28.0768 0.768689 28.0267 0.773353 28.0307 0.814777C28.0315 0.824494 28.098 0.926398 28.1003 0.93524C28.1178 1.00404 27.968 0.900091 27.9585 0.895971C27.8558 0.852794 27.9245 0.967847 27.9236 0.983991C27.919 1.05738 27.8675 1.0842 27.8601 1.14293C27.8551 1.18123 27.9515 1.25733 27.9333 1.27673C27.873 1.34146 27.7156 1.26225 27.7885 1.42003C27.804 1.45381 27.924 1.52141 27.8011 1.50905C27.7934 1.50833 27.6866 1.48752 27.7212 1.54742C27.7255 1.55497 27.7579 1.57901 27.758 1.58475C27.7583 1.62273 27.7208 1.62002 27.7143 1.65633C27.7078 1.69266 27.7037 1.7392 27.671 1.76185C27.6514 1.77556 27.5733 1.75356 27.5519 1.75115C27.4906 1.74371 27.5429 1.8239 27.479 1.79994C27.4146 1.77576 27.356 1.68519 27.2917 1.69997C27.3772 1.76616 27.4637 1.83605 27.5491 1.90361C27.483 1.99181 27.3922 2.0594 27.3324 2.15279C27.3251 2.16445 27.381 2.18871 27.3745 2.20217C27.3467 2.25885 27.2813 2.27762 27.2582 2.34065C27.2405 2.38957 27.2612 2.47314 27.2449 2.52594C27.1221 2.47395 27.1133 2.56377 27.0716 2.60268C27.057 2.61631 27.0294 2.59405 27.0121 2.59858C26.9474 2.6161 27.0558 2.66617 27.0623 2.68913C27.0905 2.78761 26.8734 2.63209 26.8359 2.69543C26.8338 2.69867 26.9216 2.82337 26.9252 2.83417C26.9484 2.90324 26.8811 2.80979 26.8576 2.82465C26.8148 2.85178 26.7678 2.85779 26.77 2.92876C26.7707 2.94952 26.8216 3.03605 26.7469 3.01956C26.7371 3.0174 26.6996 2.98649 26.6954 2.98751C26.6224 3.00832 26.7441 3.10114 26.7662 3.16067C26.7884 3.22026 26.6729 3.20048 26.6419 3.19086C26.5618 3.16642 26.6272 3.15274 26.6218 3.14681C26.5579 3.07657 26.5482 3.11778 26.5246 3.13724C26.4004 3.04983 26.3832 3.08878 26.5007 3.15776C26.5136 3.16523 26.5156 3.13793 26.5246 3.13724C26.6289 3.2476 26.6188 3.29699 26.4771 3.25402C26.4106 3.2338 26.362 3.16965 26.3426 3.24456C26.3338 3.27854 26.4262 3.33192 26.4329 3.37271C26.4484 3.46603 26.3193 3.47592 26.2928 3.54041C26.2832 3.56388 26.3445 3.5798 26.3396 3.59709C26.327 3.64319 26.2687 3.64857 26.2614 3.69886C26.2608 3.70347 26.3166 3.73279 26.3093 3.74468C26.2551 3.83561 26.1703 3.88668 26.1063 3.97611C26.0754 4.01932 26.0496 4.11854 26.0124 4.15948C25.9485 4.23075 25.8046 4.26971 25.7762 4.35018C25.7576 4.40259 25.8174 4.43272 25.8407 4.4785C25.8861 4.56727 25.7156 4.53698 25.6897 4.53073C25.6889 4.5305 25.7025 4.48364 25.661 4.48307C25.5955 4.45184 25.6897 4.53011 25.6897 4.53073C25.6731 4.52691 25.6083 4.59251 25.6082 4.61506C25.6082 4.62735 25.6626 4.66109 25.6616 4.66678C25.6377 4.80135 25.5819 4.9124 25.4869 4.99605C25.4846 4.99705 25.4278 4.95054 25.4231 4.95344C25.3559 4.9927 25.4016 5.08413 25.4112 5.16511C25.4207 5.24604 25.3801 5.27423 25.2573 5.22623C25.2448 5.27256 25.1626 5.29109 25.1135 5.30042C25.0644 5.30974 25.1793 5.40193 25.1798 5.40635C25.197 5.54535 25.0963 5.5431 25.0257 5.62124C24.9919 5.65828 24.953 5.75262 24.9356 5.807C24.922 5.85013 24.8789 5.85 24.8748 5.89599C24.8742 5.90219 24.9315 5.93833 24.9327 5.94122C24.973 6.02605 24.8519 5.90935 24.823 5.89907C24.7179 5.86156 24.6598 5.8435 24.6683 5.91997C24.6701 5.93748 24.8417 6.11272 24.8398 6.14082C24.8369 6.17697 24.7739 6.1155 24.7726 6.15462C24.7724 6.15792 24.8157 6.18951 24.8026 6.20452C24.7425 6.27465 24.6605 6.33879 24.6108 6.42113C24.6038 6.43227 24.6826 6.47016 24.6737 6.48715C24.6322 6.5668 24.5754 6.64564 24.4938 6.69256C24.4735 6.70394 24.4316 6.65604 24.4144 6.64891C24.3095 6.60598 24.4158 6.73548 24.4146 6.74288C24.3881 6.9205 24.2014 6.93214 24.167 7.10768C24.1653 7.11731 24.2701 7.27988 24.1307 7.21341C24.1215 7.20909 23.9789 7.13988 24.05 7.22581C24.0544 7.23119 24.1296 7.26415 24.1048 7.28608C24.0799 7.30797 24.0942 7.38377 23.9975 7.36713C23.967 7.36201 23.8212 7.29474 23.8985 7.40499C23.9038 7.41236 24.0971 7.63779 23.9255 7.53859C23.8972 7.52221 23.7313 7.3934 23.789 7.49918C23.8003 7.5196 23.8478 7.53327 23.857 7.57171C23.8714 7.63084 23.7971 7.6394 23.846 7.73534C23.8546 7.75217 23.9505 7.86789 23.847 7.82595C23.8307 7.81936 23.7785 7.76986 23.7637 7.77751C23.693 7.81359 23.6894 7.90395 23.6089 7.93408C23.5804 7.94479 23.4947 7.86441 23.4544 7.86769C23.4142 7.871 23.3592 7.89705 23.3861 7.95201C23.4131 8.00705 23.58 8.09355 23.5685 8.13721C23.5189 8.32733 23.3294 8.41084 23.2135 8.5511C23.1964 8.57194 23.2641 8.59459 23.2429 8.62833C23.1645 8.75262 23.0766 9.00252 22.8849 9.01793C22.7308 9.02992 22.73 8.86945 22.6463 8.90404C22.6058 8.9207 22.7677 9.09228 22.7686 9.1042C22.778 9.22171 22.6608 9.21104 22.6411 9.29576C22.6371 9.3133 22.7221 9.35666 22.7179 9.371C22.7043 9.42053 22.6421 9.43681 22.6226 9.47932C22.614 9.49853 22.6746 9.53907 22.6596 9.55137C22.6242 9.5813 22.5772 9.59608 22.4973 9.5913C22.49 9.59085 22.4321 9.51385 22.4104 9.53937C22.3756 9.58088 22.2826 9.59519 22.304 9.68877C22.3105 9.7167 22.4461 9.81886 22.3298 9.78152C22.3055 9.77376 22.1479 9.6428 22.2631 9.7865C22.282 9.81031 22.43 10.0177 22.285 9.95703C22.2468 9.94107 22.0973 9.86144 22.1059 9.89553C22.1076 9.90054 22.1883 9.94576 22.1851 9.96633C22.1726 10.0379 22.1264 10.0882 22.1122 10.1607C22.1086 10.1802 22.2007 10.2159 22.1929 10.2432C22.1717 10.3183 22.1012 10.3792 22.0368 10.4201C22.0129 10.4351 21.9584 10.3717 21.9503 10.368C21.8183 10.3078 21.9628 10.4384 21.9662 10.4536C21.9848 10.5467 21.8847 10.5323 21.8711 10.5952C21.8672 10.6124 21.9481 10.6586 21.953 10.6662C21.9993 10.7424 21.8793 10.6218 21.8527 10.6283C21.7777 10.646 21.7465 10.7049 21.7225 10.7616C21.7138 10.7825 21.8148 10.8272 21.8061 10.8452C21.756 10.9533 21.6802 11.0481 21.5676 11.106C21.5463 11.1168 21.4856 11.0546 21.4675 11.0467C21.3409 10.9906 21.4644 11.1391 21.4728 11.1584C21.5113 11.246 21.4404 11.216 21.4283 11.2589C21.3708 11.4701 21.1899 11.6488 21.0561 11.7887C20.8826 11.9718 20.7042 12.0811 20.587 12.2916C20.5794 12.3049 20.6848 12.3645 20.6796 12.377C20.6083 12.5346 20.4768 12.6439 20.4103 12.8055C20.4047 12.8186 20.5095 12.8719 20.5037 12.8954C20.4925 12.9441 20.4553 12.9886 20.3994 13.0046C20.3723 13.0125 20.3083 12.927 20.2826 12.9362C20.2226 12.9573 20.1839 12.9991 20.1685 13.0554C20.1623 13.0796 20.2789 13.1231 20.2632 13.1489C20.1584 13.326 20.0644 13.5065 19.8195 13.5817C19.8028 13.5869 19.5934 13.446 19.615 13.4998C19.67 13.5437 19.7362 13.5929 19.7957 13.6386C19.6611 13.9098 19.4245 14.101 19.2445 14.3393C19.237 14.3494 19.3602 14.4143 19.3463 14.4343C19.2655 14.55 19.2204 14.6874 19.0273 14.7233C19.0083 14.727 18.814 14.5727 18.82 14.6298C18.8212 14.6401 18.8116 14.7122 18.8456 14.7581C18.8508 14.7648 18.9504 14.8247 18.9416 14.8437C18.8888 14.9528 18.7975 15.0403 18.6727 15.0954C18.6524 15.1041 18.5635 15.0123 18.5481 15.0178C18.4394 15.0576 18.4563 15.2017 18.3114 15.209C18.2138 15.2135 18.0512 15.0634 17.8589 14.9609C17.8317 14.9464 17.8053 14.9746 17.7032 14.9008C17.4463 14.7154 17.1797 14.4931 16.9046 14.2972C16.8588 14.2646 16.8668 14.3092 16.8166 14.2717C16.8166 14.2717 16.8166 14.2717 16.8166 14.2717C16.8018 14.2606 16.7819 14.2425 16.7542 14.2131C16.7461 14.2044 16.7226 14.1404 16.6807 14.0976C16.6517 14.068 16.5419 14.0004 16.5079 13.9587C16.474 13.9172 16.5689 13.9702 16.5331 13.9164C16.4967 13.8623 16.3743 13.7827 16.3881 13.7392ZM24.8925 5.34239C24.8155 5.32744 25.0218 5.48781 24.9931 5.42028C24.9914 5.41683 24.8963 5.34305 24.8925 5.34239ZM27.2741 1.97043C27.1786 1.95474 27.2629 2.05582 27.3349 2.07031C27.4066 2.08455 27.303 1.97503 27.2741 1.97043ZM27.496 1.55903C27.4124 1.5617 27.623 1.72918 27.6118 1.65115C27.6112 1.64667 27.5008 1.55884 27.496 1.55903ZM17.8993 14.8005C17.8943 14.7974 17.8734 14.8162 17.8778 14.8203C17.9826 14.9169 18.0239 14.8789 17.8993 14.8005ZM27.7153 1.15018C27.6777 1.14241 27.6822 1.20419 27.729 1.21392C27.7666 1.22166 27.762 1.15972 27.7153 1.15018ZM23.6082 6.60396C23.6045 6.60182 23.5896 6.61537 23.6093 6.62961C23.6729 6.67542 23.6715 6.64003 23.6082 6.60396ZM28.176 0.52089C28.1008 0.608578 27.8972 0.543673 27.9916 0.457617C28.0086 0.441949 28.013 0.534687 28.0449 0.522418C28.1028 0.499597 28.0243 0.397147 28.1103 0.393931C28.1258 0.393295 28.1805 0.516066 28.1761 0.521219C28.1761 0.521113 28.176 0.520999 28.176 0.52089ZM24.6299 5.17082C24.6267 5.16931 24.6077 5.18928 24.6101 5.19185C24.6678 5.25342 24.7059 5.21305 24.6299 5.17082ZM22.768 7.4166C22.7602 7.41264 22.7153 7.45838 22.7204 7.46481C22.8286 7.58694 22.9189 7.49407 22.768 7.4166ZM25.5967 3.59194C25.5554 3.52386 25.5706 3.49058 25.6591 3.52699C25.6372 3.54764 25.6185 3.57095 25.5967 3.59194Z" fill="#D3A373"/>
</svg>
