<svg width="42" height="42" viewBox="0 0 42 42" fill="none" xmlns="http://www.w3.org/2000/svg">
<path d="M7.34995 8.40002C5.61089 8.40002 4.19995 9.81096 4.19995 11.55C4.19995 12.541 4.66589 13.4728 5.45995 14.07L19.11 24.3075C20.2321 25.1475 21.7678 25.1475 22.8899 24.3075L36.5399 14.07C37.334 13.4728 37.7999 12.541 37.7999 11.55C37.7999 9.81096 36.389 8.40002 34.65 8.40002H7.34995ZM4.19995 17.0625V29.4C4.19995 31.7166 6.08339 33.6 8.39995 33.6H33.5999C35.9165 33.6 37.7999 31.7166 37.7999 29.4V17.0625L24.78 26.8275C22.5421 28.5075 19.4578 28.5075 17.2199 26.8275L4.19995 17.0625Z" fill="white"/>
</svg>
